<svg width="18" height="20" viewBox="0 0 18 20" fill="none" xmlns="http://www.w3.org/2000/svg">
<circle cx="8.90826" cy="6.80726" r="5.90943" fill="#1F2626"/>
<g clip-path="url(#clip0_2_202)">
<path fill-rule="evenodd" clip-rule="evenodd" d="M8.90826 0.897827C5.6433 0.897827 2.99883 3.5423 2.99883 6.80726C2.99883 9.42218 4.6904 11.6308 7.0394 12.4138C7.33487 12.4655 7.44567 12.2883 7.44567 12.1331C7.44567 11.9928 7.43829 11.5274 7.43829 11.0325C5.95354 11.3058 5.56943 10.6705 5.45124 10.3381C5.38476 10.1682 5.09667 9.64379 4.84552 9.50344C4.63869 9.39264 4.34322 9.11932 4.83814 9.11194C5.3035 9.10455 5.63591 9.54037 5.74671 9.71765C6.27856 10.6115 7.12804 10.3603 7.46783 10.2052C7.51954 9.82107 7.67466 9.56253 7.84456 9.41479C6.52971 9.26706 5.15577 8.75737 5.15577 6.49701C5.15577 5.85436 5.38476 5.32251 5.76148 4.90885C5.70239 4.76112 5.49556 4.1554 5.82058 3.34285C5.82058 3.34285 6.31549 3.18773 7.44567 3.94857C7.91843 3.81561 8.42073 3.74913 8.92303 3.74913C9.42533 3.74913 9.92763 3.81561 10.4004 3.94857C11.5306 3.18035 12.0255 3.34285 12.0255 3.34285C12.3505 4.1554 12.1437 4.76112 12.0846 4.90885C12.4613 5.32251 12.6903 5.84698 12.6903 6.49701C12.6903 8.76476 11.309 9.26706 9.99411 9.41479C10.2083 9.59947 10.393 9.95403 10.393 10.508C10.393 11.2984 10.3856 11.9337 10.3856 12.1331C10.3856 12.2883 10.4964 12.4729 10.7919 12.4138C11.965 12.0178 12.9844 11.2638 13.7065 10.2581C14.4287 9.25231 14.8173 8.04543 14.8177 6.80726C14.8177 3.5423 12.1732 0.897827 8.90826 0.897827Z" fill="url(#paint0_linear_2_202)"/>
</g>
<path d="M2.46191 17.3707H2.72875V18.3742C2.60598 18.482 2.46066 18.5646 2.29278 18.6223C2.12491 18.6799 1.94827 18.7087 1.76286 18.7087C1.49978 18.7087 1.263 18.6511 1.05253 18.5358C0.842067 18.4206 0.6767 18.2615 0.556434 18.0585C0.436167 17.8531 0.376034 17.6238 0.376034 17.3707C0.376034 17.1177 0.436167 16.8897 0.556434 16.6867C0.6767 16.4813 0.842067 16.3209 1.05253 16.2057C1.263 16.0904 1.50103 16.0328 1.76662 16.0328C1.96706 16.0328 2.15122 16.0653 2.31909 16.1305C2.48696 16.1931 2.62853 16.2871 2.74378 16.4124L2.5709 16.589C2.36294 16.3836 2.0986 16.2808 1.77789 16.2808C1.56492 16.2808 1.37199 16.3284 1.19911 16.4236C1.02873 16.5163 0.894684 16.6466 0.796967 16.8145C0.69925 16.9799 0.650392 17.1653 0.650392 17.3707C0.650392 17.5762 0.69925 17.7616 0.796967 17.927C0.894684 18.0923 1.02873 18.2226 1.19911 18.3178C1.36949 18.4131 1.56116 18.4607 1.77413 18.4607C2.04473 18.4607 2.27399 18.393 2.46191 18.2577V17.3707ZM3.96689 16.0553H4.245V18.6862H3.96689V16.0553ZM6.06313 16.2959H5.13858V16.0553H7.26579V16.2959H6.34124V18.6862H6.06313V16.2959ZM10.3597 16.0553V18.6862H10.0854V17.4722H8.43922V18.6862H8.1611V16.0553H8.43922V17.2279H10.0854V16.0553H10.3597ZM12.7293 18.7087C12.3885 18.7087 12.1229 18.611 11.9325 18.4156C11.7421 18.2201 11.6469 17.9357 11.6469 17.5624V16.0553H11.925V17.5511C11.925 17.8568 11.9939 18.0848 12.1317 18.2352C12.2695 18.3855 12.4687 18.4607 12.7293 18.4607C12.9923 18.4607 13.1928 18.3855 13.3306 18.2352C13.4684 18.0848 13.5373 17.8568 13.5373 17.5511V16.0553H13.8079V17.5624C13.8079 17.9357 13.7127 18.2201 13.5223 18.4156C13.3344 18.611 13.07 18.7087 12.7293 18.7087ZM16.7544 17.3294C16.9273 17.367 17.0601 17.4421 17.1528 17.5549C17.248 17.6651 17.2956 17.808 17.2956 17.9833C17.2956 18.2088 17.2117 18.383 17.0438 18.5058C16.8784 18.626 16.6329 18.6862 16.3072 18.6862H15.097V16.0553H16.232C16.5252 16.0553 16.7519 16.1142 16.9123 16.232C17.0751 16.3497 17.1566 16.5163 17.1566 16.7318C17.1566 16.8771 17.1202 17.0012 17.0476 17.1039C16.9774 17.2041 16.8797 17.2793 16.7544 17.3294ZM15.3751 16.2846V17.2392H16.2132C16.4262 17.2392 16.5903 17.1991 16.7056 17.1189C16.8208 17.0362 16.8784 16.9172 16.8784 16.7619C16.8784 16.6065 16.8208 16.4888 16.7056 16.4086C16.5903 16.3259 16.4262 16.2846 16.2132 16.2846H15.3751ZM16.3034 18.4569C16.5389 18.4569 16.7168 18.4168 16.8371 18.3366C16.9574 18.2565 17.0175 18.1312 17.0175 17.9608C17.0175 17.6326 16.7795 17.4685 16.3034 17.4685H15.3751V18.4569H16.3034Z" fill="#BDEBEA"/>
<defs>
<linearGradient id="paint0_linear_2_202" x1="2.99883" y1="6.66147" x2="14.8177" y2="6.66147" gradientUnits="userSpaceOnUse">
<stop stop-color="#00F5A0"/>
<stop offset="1" stop-color="#00D9F5"/>
</linearGradient>
<clipPath id="clip0_2_202">
<rect width="11.8189" height="11.8189" fill="white" transform="translate(2.99883 0.897827)"/>
</clipPath>
</defs>
</svg>
