<svg width="16" height="20" viewBox="0 0 16 20" fill="none" xmlns="http://www.w3.org/2000/svg">
<circle cx="7.98287" cy="6.49415" r="5.90943" fill="url(#paint0_linear_2_188)"/>
<g clip-path="url(#clip0_2_188)">
<path d="M11.6767 4.18564V8.80238C11.6767 9.06438 11.4771 9.26406 11.2151 9.26406H10.7534V5.07413L7.98334 7.06395L5.2133 5.07413V9.26406H4.75162C4.48962 9.26406 4.28995 9.06438 4.28995 8.80238V4.18564C4.28995 4.05452 4.33935 3.93911 4.42222 3.85739C4.46538 3.81421 4.51678 3.78014 4.57337 3.75722C4.62996 3.7343 4.69058 3.72299 4.75162 3.72397H4.90559L7.98334 5.95547L11.0611 3.72397H11.2151C11.3462 3.72397 11.4616 3.77336 11.5445 3.85739C11.6273 3.93911 11.6767 4.05452 11.6767 4.18564Z" fill="#1F2626"/>
</g>
<path d="M3.01578 17.0576H3.28262V18.0611C3.15985 18.1688 3.01453 18.2515 2.84666 18.3092C2.67878 18.3668 2.50214 18.3956 2.31673 18.3956C2.05365 18.3956 1.81687 18.338 1.60641 18.2227C1.39594 18.1075 1.23057 17.9484 1.11031 17.7454C0.990038 17.5399 0.929905 17.3107 0.929905 17.0576C0.929905 16.8046 0.990038 16.5766 1.11031 16.3736C1.23057 16.1682 1.39594 16.0078 1.60641 15.8925C1.81687 15.7773 2.0549 15.7197 2.32049 15.7197C2.52093 15.7197 2.70509 15.7522 2.87296 15.8174C3.04084 15.88 3.1824 15.974 3.29766 16.0993L3.12477 16.2759C2.91681 16.0704 2.65247 15.9677 2.33176 15.9677C2.11879 15.9677 1.92586 16.0153 1.75298 16.1105C1.5826 16.2032 1.44856 16.3335 1.35084 16.5014C1.25312 16.6668 1.20426 16.8522 1.20426 17.0576C1.20426 17.2631 1.25312 17.4485 1.35084 17.6139C1.44856 17.7792 1.5826 17.9095 1.75298 18.0047C1.92336 18.0999 2.11503 18.1475 2.32801 18.1475C2.59861 18.1475 2.82786 18.0799 3.01578 17.9446V17.0576ZM7.25307 15.7422V18.373H6.98622V16.2684L5.95268 18.0386H5.82114L4.7876 16.2797V18.373H4.52076V15.7422H4.75002L5.89255 17.6928L7.02381 15.7422H7.25307ZM10.2112 17.6702H8.74542L8.42972 18.373H8.14033L9.34299 15.7422H9.61735L10.82 18.373H10.5269L10.2112 17.6702ZM10.1097 17.4447L9.47829 16.0316L8.84689 17.4447H10.1097ZM11.7062 15.7422H11.9843V18.373H11.7062V15.7422ZM13.2913 15.7422H13.5694V18.1325H15.0427V18.373H13.2913V15.7422Z" fill="#BDEBEA"/>
<defs>
<linearGradient id="paint0_linear_2_188" x1="2.07344" y1="6.49415" x2="13.8923" y2="6.49415" gradientUnits="userSpaceOnUse">
<stop stop-color="#00F5A0"/>
<stop offset="1" stop-color="#00D9F5"/>
</linearGradient>
<clipPath id="clip0_2_188">
<rect width="7.38679" height="7.38679" fill="white" transform="translate(4.29009 2.80078)"/>
</clipPath>
</defs>
</svg>
