<svg width="24" height="20" viewBox="0 0 24 20" fill="none" xmlns="http://www.w3.org/2000/svg">
<ellipse cx="12.0444" cy="6.494" rx="5.90943" ry="5.90943" fill="url(#paint0_linear_2_195)"/>
<path d="M9.13465 9.57485H10.3712V4.99981H9.13465V9.57485ZM9.7529 2.98019C9.34073 2.98019 9.011 3.30993 9.011 3.72209C9.011 4.13426 9.34073 4.46399 9.7529 4.46399C10.1651 4.46399 10.4948 4.13426 10.4948 3.72209C10.4948 3.30993 10.1651 2.98019 9.7529 2.98019ZM12.4732 5.70049V4.99981H11.2367V9.57485H12.4732V7.22551C12.4732 5.90657 14.1631 5.82414 14.1631 7.22551V9.57485H15.3996V6.77212C15.3996 4.54642 13.0502 4.62886 12.4732 5.70049Z" fill="#1F2626"/>
<path d="M1.49699 15.7422H1.77511V18.1325H3.24837V18.373H1.49699V15.7422ZM4.16115 15.7422H4.43927V18.373H4.16115V15.7422ZM7.94488 15.7422V18.373H7.71562L6.02437 16.2383V18.373H5.74626V15.7422H5.97551L7.67052 17.8769V15.7422H7.94488ZM10.0701 17.1365L9.53269 17.6815V18.373H9.25457V15.7422H9.53269V17.3319L11.0774 15.7422H11.3968L10.258 16.9335L11.4757 18.373H11.145L10.0701 17.1365ZM14.2379 18.1325V18.373H12.3775V15.7422H14.1815V15.9827H12.6556V16.9185H14.0161V17.1553H12.6556V18.1325H14.2379ZM15.3426 15.7422H16.4138C16.6919 15.7422 16.9374 15.7985 17.1504 15.9113C17.3634 16.0215 17.5287 16.1769 17.6465 16.3773C17.7643 16.5752 17.8231 16.802 17.8231 17.0576C17.8231 17.3131 17.7643 17.5411 17.6465 17.7416C17.5287 17.9395 17.3634 18.0949 17.1504 18.2076C16.9374 18.3179 16.6919 18.373 16.4138 18.373H15.3426V15.7422ZM16.3987 18.1325C16.6292 18.1325 16.8309 18.0874 17.0038 17.9972C17.1767 17.9044 17.3107 17.7779 17.406 17.6176C17.5012 17.4547 17.5488 17.268 17.5488 17.0576C17.5488 16.8471 17.5012 16.6617 17.406 16.5013C17.3107 16.3385 17.1767 16.2119 17.0038 16.1217C16.8309 16.029 16.6292 15.9827 16.3987 15.9827H15.6207V18.1325H16.3987ZM18.8987 15.7422H19.1768V18.373H18.8987V15.7422ZM22.6824 15.7422V18.373H22.4531L20.7619 16.2383V18.373H20.4838V15.7422H20.713L22.408 17.8769V15.7422H22.6824Z" fill="#BDEBEA"/>
<defs>
<linearGradient id="paint0_linear_2_195" x1="6.13499" y1="6.494" x2="17.9539" y2="6.494" gradientUnits="userSpaceOnUse">
<stop stop-color="#00F5A0"/>
<stop offset="1" stop-color="#00D9F5"/>
</linearGradient>
</defs>
</svg>
