<svg width="39" height="52" viewBox="0 0 39 52" fill="none" xmlns="http://www.w3.org/2000/svg">
<path d="M6.66728 49.5694V46.0616H8.09545C8.46961 46.0616 8.79701 46.1368 9.07763 46.2871C9.36159 46.4341 9.58208 46.6396 9.73909 46.9035C9.89611 47.1674 9.97462 47.4714 9.97462 47.8155C9.97462 48.1596 9.89611 48.4636 9.73909 48.7276C9.58208 48.9915 9.36159 49.1986 9.07763 49.3489C8.79701 49.4959 8.46961 49.5694 8.09545 49.5694H6.66728ZM7.0381 49.2487H8.0754C8.38609 49.2487 8.65502 49.1886 8.88219 49.0683C9.1127 48.9447 9.29143 48.776 9.41838 48.5622C9.54533 48.345 9.60881 48.0962 9.60881 47.8155C9.60881 47.5316 9.54533 47.2827 9.41838 47.0689C9.29143 46.8551 9.1127 46.688 8.88219 46.5678C8.65502 46.4442 8.38609 46.3824 8.0754 46.3824H7.0381V49.2487ZM13.0191 49.5995C12.7552 49.5995 12.5097 49.5561 12.2825 49.4692C12.0587 49.379 11.8632 49.2537 11.6962 49.0934C11.5325 48.9297 11.4039 48.7409 11.3103 48.5271C11.2201 48.31 11.175 48.0728 11.175 47.8155C11.175 47.5583 11.2201 47.3228 11.3103 47.109C11.4039 46.8918 11.5325 46.7031 11.6962 46.5427C11.8632 46.379 12.0587 46.2537 12.2825 46.1669C12.5063 46.0767 12.7519 46.0316 13.0191 46.0316C13.283 46.0316 13.5269 46.0767 13.7507 46.1669C13.9746 46.2537 14.1683 46.3773 14.332 46.5377C14.4991 46.6981 14.6277 46.8868 14.7179 47.104C14.8114 47.3211 14.8582 47.5583 14.8582 47.8155C14.8582 48.0728 14.8114 48.31 14.7179 48.5271C14.6277 48.7443 14.4991 48.933 14.332 49.0934C14.1683 49.2537 13.9746 49.379 13.7507 49.4692C13.5269 49.5561 13.283 49.5995 13.0191 49.5995ZM13.0191 49.2688C13.2296 49.2688 13.4234 49.2337 13.6004 49.1635C13.7808 49.09 13.9362 48.9881 14.0664 48.8578C14.2001 48.7242 14.3036 48.5705 14.3771 48.3968C14.4506 48.2198 14.4874 48.026 14.4874 47.8155C14.4874 47.6051 14.4506 47.413 14.3771 47.2393C14.3036 47.0622 14.2001 46.9085 14.0664 46.7782C13.9362 46.6446 13.7808 46.5427 13.6004 46.4726C13.4234 46.3991 13.2296 46.3623 13.0191 46.3623C12.8087 46.3623 12.6132 46.3991 12.4328 46.4726C12.2524 46.5427 12.0954 46.6446 11.9618 46.7782C11.8315 46.9085 11.7279 47.0622 11.6511 47.2393C11.5776 47.413 11.5408 47.6051 11.5408 47.8155C11.5408 48.0227 11.5776 48.2148 11.6511 48.3918C11.7279 48.5689 11.8315 48.7242 11.9618 48.8578C12.0954 48.9881 12.2524 49.09 12.4328 49.1635C12.6132 49.2337 12.8087 49.2688 13.0191 49.2688ZM17.8912 49.5995C17.6272 49.5995 17.3834 49.5561 17.1595 49.4692C16.9357 49.379 16.7419 49.2537 16.5783 49.0934C16.4146 48.933 16.2859 48.7443 16.1924 48.5271C16.1022 48.31 16.0571 48.0728 16.0571 47.8155C16.0571 47.5583 16.1022 47.3211 16.1924 47.104C16.2859 46.8868 16.4146 46.6981 16.5783 46.5377C16.7453 46.3773 16.9407 46.2537 17.1646 46.1669C17.3884 46.0767 17.6323 46.0316 17.8962 46.0316C18.1501 46.0316 18.3889 46.075 18.6128 46.1619C18.8366 46.2454 19.0253 46.3723 19.179 46.5427L18.9435 46.7782C18.7998 46.6312 18.6412 46.526 18.4674 46.4625C18.2937 46.3957 18.1066 46.3623 17.9062 46.3623C17.6957 46.3623 17.5003 46.3991 17.3199 46.4726C17.1395 46.5427 16.9825 46.6446 16.8489 46.7782C16.7152 46.9085 16.61 47.0622 16.5332 47.2393C16.4597 47.413 16.4229 47.6051 16.4229 47.8155C16.4229 48.026 16.4597 48.2198 16.5332 48.3968C16.61 48.5705 16.7152 48.7242 16.8489 48.8578C16.9825 48.9881 17.1395 49.09 17.3199 49.1635C17.5003 49.2337 17.6957 49.2688 17.9062 49.2688C18.1066 49.2688 18.2937 49.2354 18.4674 49.1685C18.6412 49.1017 18.7998 48.9948 18.9435 48.8478L19.179 49.0833C19.0253 49.2537 18.8366 49.3823 18.6128 49.4692C18.3889 49.5561 18.1484 49.5995 17.8912 49.5995ZM20.9686 48.6975L20.9536 48.2465L23.0783 46.0616H23.5043L21.9558 47.6852L21.7454 47.9107L20.9686 48.6975ZM20.6479 49.5694V46.0616H21.0187V49.5694H20.6479ZM23.1685 49.5694L21.6552 47.8256L21.9057 47.555L23.6095 49.5694H23.1685ZM25.2196 47.6301H27.0738V47.9458H25.2196V47.6301ZM25.2597 49.2487H27.3694V49.5694H24.8889V46.0616H27.2942V46.3824H25.2597V49.2487ZM28.9195 49.5694V46.0616H30.2324C30.5297 46.0616 30.7853 46.1101 30.9991 46.207C31.2129 46.3005 31.3766 46.4375 31.4902 46.6179C31.6071 46.7949 31.6656 47.0104 31.6656 47.2643C31.6656 47.5115 31.6071 47.7253 31.4902 47.9057C31.3766 48.0828 31.2129 48.2198 30.9991 48.3166C30.7853 48.4102 30.5297 48.457 30.2324 48.457H29.1249L29.2903 48.2866V49.5694H28.9195ZM31.3148 49.5694L30.4128 48.2966H30.8137L31.7207 49.5694H31.3148ZM29.2903 48.3166L29.1249 48.1413H30.2224C30.5731 48.1413 30.8387 48.0644 31.0191 47.9107C31.2029 47.7571 31.2947 47.5416 31.2947 47.2643C31.2947 46.9837 31.2029 46.7665 31.0191 46.6129C30.8387 46.4592 30.5731 46.3824 30.2224 46.3824H29.1249L29.2903 46.207V48.3166Z" fill="#BDEBEA"/>
<g clip-path="url(#clip0_2_286)">
<path d="M37.6482 15.676C36.8018 15.0888 34.8623 14.8686 33.346 15.1622C33.1699 13.6941 32.3587 12.4096 30.9482 11.2719L30.1372 10.6846L29.5729 11.5288C28.8678 12.6299 28.5151 14.1714 28.6208 15.6395C28.6561 16.1531 28.8324 17.0707 29.3613 17.8782C28.8678 18.1718 27.8451 18.5388 26.5051 18.5388H1.01013L0.939663 18.8324C0.692729 20.3004 0.692729 24.888 3.5843 28.4113C5.77059 31.0905 9.01479 32.4485 13.2815 32.4485C22.5203 32.4485 29.3613 28.0075 32.5703 19.9701C33.8398 20.0068 36.555 19.9701 37.9303 17.2174C37.9656 17.144 38.036 16.9972 38.2828 16.4468L38.4239 16.1531L37.6482 15.676ZM21.3919 5.32635H17.5132V8.99646H21.3919V5.32635ZM21.3919 9.73051H17.5132V13.4006H21.3919V9.73036V9.73051ZM16.8078 9.73051H12.929V13.4006H16.8078V9.73036V9.73051ZM12.2236 9.73051H8.34476V13.4006H12.2236V9.73036V9.73051ZM7.63948 14.1347H3.76062V17.8048H7.63933V14.1345L7.63948 14.1347ZM12.2236 14.1347H8.34476V17.8048H12.2236V14.1345V14.1347ZM16.8078 14.1347H12.929V17.8048H16.8078V14.1345V14.1347ZM21.392 14.1347H17.513V17.8048H21.392V14.1345V14.1347ZM25.9762 14.1347H22.0972V17.8048H25.9762V14.1345V14.1347Z" fill="#2396ED"/>
</g>
<defs>
<clipPath id="clip0_2_286">
<rect width="37.5833" height="37.5833" fill="white" transform="translate(0.840584 0.0957947)"/>
</clipPath>
</defs>
</svg>
