<svg width="39" height="52" viewBox="0 0 39 52" fill="none" xmlns="http://www.w3.org/2000/svg">
<path d="M2.01394 47.6301H3.86805V47.9458H2.01394V47.6301ZM2.05403 49.2487H4.16371V49.5694H1.68321V46.0616H4.08854V46.3824H2.05403V49.2487ZM5.18365 49.5694L6.62184 47.6251V47.9107L5.26884 46.0616H5.69478L6.8323 47.6051L6.66694 47.6101L7.80446 46.0616H8.20535L6.86738 47.8857V47.6251L8.30056 49.5694H7.8696L6.65691 47.9208H6.81226L5.60959 49.5694H5.18365ZM9.51433 49.5694V46.0616H10.8272C11.1246 46.0616 11.3801 46.1101 11.5939 46.207C11.8077 46.3005 11.9714 46.4375 12.085 46.6179C12.202 46.7949 12.2604 47.0104 12.2604 47.2643C12.2604 47.5115 12.202 47.7253 12.085 47.9057C11.9714 48.0828 11.8077 48.2198 11.5939 48.3166C11.3801 48.4135 11.1246 48.462 10.8272 48.462H9.71978L9.88515 48.2866V49.5694H9.51433ZM9.88515 48.3166L9.71978 48.1362H10.8172C11.168 48.1362 11.4336 48.0611 11.614 47.9107C11.7977 47.7571 11.8896 47.5416 11.8896 47.2643C11.8896 46.9837 11.7977 46.7665 11.614 46.6129C11.4336 46.4592 11.168 46.3824 10.8172 46.3824H9.71978L9.88515 46.207V48.3166ZM13.7406 49.5694V46.0616H15.0535C15.3509 46.0616 15.6064 46.1101 15.8202 46.207C16.0341 46.3005 16.1978 46.4375 16.3113 46.6179C16.4283 46.7949 16.4867 47.0104 16.4867 47.2643C16.4867 47.5115 16.4283 47.7253 16.3113 47.9057C16.1978 48.0828 16.0341 48.2198 15.8202 48.3166C15.6064 48.4102 15.3509 48.457 15.0535 48.457H13.9461L14.1115 48.2866V49.5694H13.7406ZM16.1359 49.5694L15.2339 48.2966H15.6348L16.5418 49.5694H16.1359ZM14.1115 48.3166L13.9461 48.1413H15.0435C15.3943 48.1413 15.6599 48.0644 15.8403 47.9107C16.024 47.7571 16.1159 47.5416 16.1159 47.2643C16.1159 46.9837 16.024 46.7665 15.8403 46.6129C15.6599 46.4592 15.3943 46.3824 15.0435 46.3824H13.9461L14.1115 46.207V48.3166ZM18.3711 47.6301H20.2252V47.9458H18.3711V47.6301ZM18.4112 49.2487H20.5209V49.5694H18.0404V46.0616H20.4457V46.3824H18.4112V49.2487ZM23.0381 49.5995C22.7775 49.5995 22.5269 49.5577 22.2864 49.4742C22.0492 49.3874 21.8655 49.2771 21.7352 49.1435L21.8805 48.8578C22.0041 48.9781 22.1695 49.08 22.3766 49.1635C22.5871 49.2437 22.8075 49.2838 23.0381 49.2838C23.2585 49.2838 23.4373 49.2571 23.5742 49.2036C23.7146 49.1468 23.8165 49.0717 23.8799 48.9781C23.9467 48.8846 23.9801 48.781 23.9801 48.6674C23.9801 48.5305 23.9401 48.4202 23.8599 48.3367C23.783 48.2532 23.6812 48.188 23.5542 48.1413C23.4273 48.0911 23.2869 48.0477 23.1333 48.011C22.9796 47.9742 22.8259 47.9358 22.6722 47.8957C22.5186 47.8523 22.3766 47.7955 22.2463 47.7253C22.1194 47.6552 22.0158 47.5633 21.9356 47.4497C21.8588 47.3328 21.8204 47.1808 21.8204 46.9937C21.8204 46.82 21.8655 46.6613 21.9557 46.5177C22.0492 46.3707 22.1912 46.2537 22.3816 46.1669C22.572 46.0767 22.8159 46.0316 23.1132 46.0316C23.3103 46.0316 23.5058 46.06 23.6995 46.1168C23.8933 46.1702 24.0603 46.2454 24.2006 46.3423L24.0754 46.6379C23.925 46.5377 23.7647 46.4642 23.5943 46.4174C23.4273 46.3707 23.2652 46.3473 23.1082 46.3473C22.8977 46.3473 22.724 46.3757 22.5871 46.4325C22.4501 46.4893 22.3482 46.5661 22.2814 46.663C22.2179 46.7565 22.1862 46.8634 22.1862 46.9837C22.1862 47.1207 22.2246 47.2309 22.3014 47.3144C22.3816 47.3979 22.4852 47.4631 22.6121 47.5099C22.7424 47.5566 22.8844 47.5984 23.0381 47.6351C23.1917 47.6719 23.3437 47.712 23.4941 47.7554C23.6477 47.7988 23.7881 47.8556 23.915 47.9258C24.0453 47.9926 24.1489 48.0828 24.2257 48.1964C24.3059 48.31 24.346 48.4586 24.346 48.6424C24.346 48.8127 24.2992 48.9714 24.2056 49.1184C24.1121 49.2621 23.9685 49.379 23.7747 49.4692C23.5843 49.5561 23.3387 49.5995 23.0381 49.5995ZM26.7995 49.5995C26.5389 49.5995 26.2883 49.5577 26.0478 49.4742C25.8106 49.3874 25.6269 49.2771 25.4966 49.1435L25.6419 48.8578C25.7655 48.9781 25.9309 49.08 26.138 49.1635C26.3485 49.2437 26.569 49.2838 26.7995 49.2838C27.02 49.2838 27.1987 49.2571 27.3357 49.2036C27.476 49.1468 27.5779 49.0717 27.6413 48.9781C27.7081 48.8846 27.7416 48.781 27.7416 48.6674C27.7416 48.5305 27.7015 48.4202 27.6213 48.3367C27.5445 48.2532 27.4426 48.188 27.3156 48.1413C27.1887 48.0911 27.0484 48.0477 26.8947 48.011C26.741 47.9742 26.5873 47.9358 26.4337 47.8957C26.28 47.8523 26.138 47.7955 26.0077 47.7253C25.8808 47.6552 25.7772 47.5633 25.697 47.4497C25.6202 47.3328 25.5818 47.1808 25.5818 46.9937C25.5818 46.82 25.6269 46.6613 25.7171 46.5177C25.8106 46.3707 25.9526 46.2537 26.143 46.1669C26.3334 46.0767 26.5773 46.0316 26.8746 46.0316C27.0717 46.0316 27.2672 46.06 27.4609 46.1168C27.6547 46.1702 27.8217 46.2454 27.962 46.3423L27.8368 46.6379C27.6864 46.5377 27.5261 46.4642 27.3557 46.4174C27.1887 46.3707 27.0266 46.3473 26.8696 46.3473C26.6592 46.3473 26.4854 46.3757 26.3485 46.4325C26.2115 46.4893 26.1096 46.5661 26.0428 46.663C25.9793 46.7565 25.9476 46.8634 25.9476 46.9837C25.9476 47.1207 25.986 47.2309 26.0628 47.3144C26.143 47.3979 26.2466 47.4631 26.3735 47.5099C26.5038 47.5566 26.6458 47.5984 26.7995 47.6351C26.9531 47.6719 27.1051 47.712 27.2555 47.7554C27.4092 47.7988 27.5495 47.8556 27.6764 47.9258C27.8067 47.9926 27.9103 48.0828 27.9871 48.1964C28.0673 48.31 28.1074 48.4586 28.1074 48.6424C28.1074 48.8127 28.0606 48.9714 27.9671 49.1184C27.8735 49.2621 27.7299 49.379 27.5361 49.4692C27.3457 49.5561 27.1001 49.5995 26.7995 49.5995ZM31.9595 49.5995C31.7624 49.5995 31.577 49.5561 31.4032 49.4692C31.2329 49.3823 31.0959 49.2587 30.9923 49.0984L31.2078 48.8478C31.3047 48.9881 31.4166 49.095 31.5436 49.1685C31.6705 49.242 31.8108 49.2788 31.9645 49.2788C32.3988 49.2788 32.6159 49.0215 32.6159 48.5071V46.3824H31.3331V46.0616H32.9817V48.492C32.9817 48.8629 32.8949 49.1401 32.7212 49.3239C32.5508 49.5076 32.2969 49.5995 31.9595 49.5995ZM35.7396 49.5995C35.4791 49.5995 35.2285 49.5577 34.988 49.4742C34.7508 49.3874 34.567 49.2771 34.4367 49.1435L34.5821 48.8578C34.7057 48.9781 34.871 49.08 35.0782 49.1635C35.2886 49.2437 35.5091 49.2838 35.7396 49.2838C35.9601 49.2838 36.1389 49.2571 36.2758 49.2036C36.4161 49.1468 36.518 49.0717 36.5815 48.9781C36.6483 48.8846 36.6817 48.781 36.6817 48.6674C36.6817 48.5305 36.6416 48.4202 36.5615 48.3367C36.4846 48.2532 36.3827 48.188 36.2558 48.1413C36.1288 48.0911 35.9885 48.0477 35.8348 48.011C35.6812 47.9742 35.5275 47.9358 35.3738 47.8957C35.2202 47.8523 35.0782 47.7955 34.9479 47.7253C34.8209 47.6552 34.7174 47.5633 34.6372 47.4497C34.5604 47.3328 34.5219 47.1808 34.5219 46.9937C34.5219 46.82 34.567 46.6613 34.6572 46.5177C34.7508 46.3707 34.8928 46.2537 35.0832 46.1669C35.2736 46.0767 35.5175 46.0316 35.8148 46.0316C36.0119 46.0316 36.2073 46.06 36.4011 46.1168C36.5949 46.1702 36.7619 46.2454 36.9022 46.3423L36.7769 46.6379C36.6266 46.5377 36.4662 46.4642 36.2959 46.4174C36.1288 46.3707 35.9668 46.3473 35.8098 46.3473C35.5993 46.3473 35.4256 46.3757 35.2886 46.4325C35.1517 46.4893 35.0498 46.5661 34.983 46.663C34.9195 46.7565 34.8877 46.8634 34.8877 46.9837C34.8877 47.1207 34.9262 47.2309 35.003 47.3144C35.0832 47.3979 35.1867 47.4631 35.3137 47.5099C35.444 47.5566 35.586 47.5984 35.7396 47.6351C35.8933 47.6719 36.0453 47.712 36.1956 47.7554C36.3493 47.7988 36.4896 47.8556 36.6166 47.9258C36.7469 47.9926 36.8504 48.0828 36.9273 48.1964C37.0074 48.31 37.0475 48.4586 37.0475 48.6424C37.0475 48.8127 37.0008 48.9714 36.9072 49.1184C36.8137 49.2621 36.67 49.379 36.4763 49.4692C36.2858 49.5561 36.0403 49.5995 35.7396 49.5995Z" fill="#BDEBEA"/>
<path d="M12.1625 23.0808V14.8581H12.6085V16.1516C12.6612 16.0942 12.7098 16.0333 12.7541 15.9692C13.1266 15.1964 13.9123 14.7086 14.7701 14.7183C15.787 14.6879 16.6134 15.0644 17.099 15.9692C17.408 16.5314 17.5781 17.1593 17.5949 17.8005C17.6118 18.4418 17.475 19.0778 17.196 19.6554C16.7436 20.6695 15.6261 21.1736 14.4297 20.9885C14.0574 20.9568 13.6989 20.8324 13.387 20.6266C13.0751 20.4208 12.8198 20.1401 12.6442 19.8103V23.0804L12.1625 23.0808ZM12.6085 17.7668L12.7084 18.7324C12.8847 19.8313 13.5345 20.4807 14.5546 20.6027C15.0336 20.6815 15.5252 20.5917 15.9454 20.3486C16.3657 20.1055 16.6886 19.7242 16.8592 19.2697C17.256 18.3242 17.2267 17.2537 16.7807 16.3303C16.5986 15.9229 16.2889 15.5858 15.8983 15.3699C15.5077 15.1541 15.0574 15.0712 14.6156 15.1339C14.2008 15.1641 13.8058 15.3227 13.4853 15.5877C13.1648 15.8527 12.9348 16.2109 12.8273 16.6126C12.7323 16.9927 12.6592 17.378 12.6085 17.7665V17.7668ZM26.7018 18.8844C26.6341 19.4633 26.3585 19.998 25.9262 20.389C25.4939 20.7799 24.9343 21.0006 24.3515 21.0099C22.4811 21.1041 21.6033 19.862 21.4638 18.4287C21.3668 17.6504 21.4932 16.8605 21.8281 16.1512C22.0613 15.6646 22.4432 15.265 22.9187 15.01C23.3942 14.7551 23.9385 14.6581 24.4728 14.7332C24.9807 14.7764 25.4622 14.9782 25.8491 15.3101C26.236 15.642 26.5087 16.0872 26.6286 16.5826C26.7237 17.0339 26.7936 17.4901 26.8381 17.9492H21.9259C21.8349 19.2487 22.5332 20.2934 23.523 20.5453C24.7557 20.8486 25.8094 20.3144 26.1919 19.1423C26.2768 18.8415 26.4317 18.7991 26.705 18.8844H26.7018ZM21.9223 17.5331H26.3161C26.2886 16.1487 25.4265 15.1425 24.2573 15.1311C22.9371 15.1097 21.9798 16.0756 21.9223 17.5331ZM27.6099 18.9147H28.0405C28.0564 19.232 28.1594 19.5387 28.3383 19.8012C28.5172 20.0638 28.7651 20.2718 29.0546 20.4026C29.4181 20.5662 29.8139 20.6457 30.2124 20.6352C30.6109 20.6247 31.0019 20.5244 31.3564 20.3419C31.5496 20.2549 31.7114 20.1107 31.82 19.9288C31.9286 19.7469 31.9787 19.536 31.9636 19.3247C31.9748 19.1208 31.9191 18.9189 31.8052 18.7496C31.6912 18.5803 31.5251 18.4527 31.3321 18.3863C30.8583 18.21 30.3544 18.1129 29.8717 17.9581C29.3693 17.8151 28.8781 17.6355 28.402 17.4207C27.6241 17.0411 27.576 15.5625 28.4566 15.0943C28.9075 14.8399 29.4149 14.7024 29.9326 14.6944C30.4503 14.6865 30.9617 14.8082 31.4202 15.0487C31.989 15.3626 32.3033 15.9967 32.2098 16.64H31.8405C31.8405 16.6222 31.807 16.6065 31.807 16.5883C31.7613 15.4108 30.7715 15.0426 29.709 15.1461C29.3878 15.1817 29.0835 15.2788 28.798 15.4222C28.6264 15.5006 28.4835 15.6304 28.3888 15.7936C28.2942 15.9568 28.2527 16.1453 28.27 16.3332C28.2703 16.5212 28.3289 16.7044 28.4376 16.8578C28.5464 17.0111 28.7 17.127 28.8772 17.1895C29.3411 17.3597 29.8335 17.4689 30.3134 17.6023L31.473 17.9056C31.7366 17.9921 31.9677 18.1566 32.1358 18.3773C32.3038 18.598 32.401 18.8645 32.4143 19.1416C32.5071 19.7642 32.1895 20.3762 31.6279 20.6598C30.6138 21.2336 28.9436 21.0819 28.1997 20.3565C27.819 19.9737 27.6067 19.4538 27.6109 18.9143L27.6099 18.9147ZM37.8788 16.6404H37.4749C37.4749 16.5858 37.4535 16.5333 37.4474 16.4916C37.441 16.1888 37.3307 15.8975 37.1349 15.6664C36.9392 15.4353 36.67 15.2786 36.3724 15.2224C35.811 15.0614 35.2122 15.0903 34.669 15.3045C34.4542 15.366 34.265 15.4953 34.1298 15.6732C33.9946 15.8511 33.9207 16.068 33.919 16.2914C33.9113 16.5108 33.9796 16.7261 34.1123 16.9009C34.2451 17.0758 34.4342 17.1994 34.6476 17.2509L36.4937 17.7247C36.6933 17.7726 36.8899 17.8324 37.0824 17.9038C37.6712 18.1179 38.0708 18.6646 38.0886 19.2893C38.0975 19.5951 38.0136 19.8965 37.848 20.1538C37.6824 20.411 37.4429 20.6122 37.1609 20.7308C36.7324 20.9255 36.268 21.0285 35.7974 21.0332C35.3268 21.0379 34.8604 20.9443 34.4281 20.7583C34.0726 20.605 33.7726 20.3465 33.5684 20.0175C33.3643 19.6885 33.2659 19.3049 33.2863 18.9183H33.681C33.8294 19.6337 34.3207 20.2295 34.9947 20.5114C35.6688 20.7933 36.4384 20.7241 37.0514 20.3273C37.2353 20.2316 37.388 20.0853 37.4913 19.9056C37.5946 19.7259 37.6443 19.5203 37.6344 19.3132C37.6436 19.1093 37.5859 18.9079 37.4703 18.7396C37.3546 18.5714 37.1873 18.4454 36.9936 18.3809C36.5197 18.2046 36.0159 18.1108 35.5332 17.9527C35.028 17.8119 34.5338 17.6343 34.0546 17.4214C33.2953 17.0479 33.2346 15.5814 34.1002 15.1136C34.5567 14.8485 35.074 14.7061 35.6019 14.7002C36.1297 14.6943 36.6501 14.8252 37.1124 15.0801C37.3768 15.2379 37.5896 15.4691 37.7249 15.7457C37.8603 16.0223 37.9122 16.3323 37.8745 16.6379L37.8788 16.6404ZM11.4286 20.8614C11.2696 20.9216 11.0941 20.9214 10.9352 20.861C10.7763 20.8006 10.645 20.6841 10.5662 20.5335L8.9962 18.3623L8.76856 18.0591L6.94669 20.5367C6.87244 20.6808 6.74827 20.793 6.59737 20.8522C6.44648 20.9114 6.27919 20.9137 6.12675 20.8586L8.47384 17.7097L6.29016 14.8645C6.61415 14.7475 6.97524 14.8745 7.15543 15.1678L8.78248 17.3658L10.4192 15.1764C10.494 15.0348 10.6182 14.9256 10.7683 14.8696C10.9183 14.8136 11.0838 14.8147 11.233 14.8728L10.3856 15.9971L9.23776 17.491C9.20591 17.5195 9.18042 17.5543 9.16296 17.5933C9.14551 17.6323 9.13649 17.6745 9.13649 17.7172C9.13649 17.7599 9.14551 17.8022 9.16296 17.8412C9.18042 17.8801 9.20591 17.915 9.23776 17.9434L11.4239 20.8614H11.4286ZM21.3942 14.8342V15.2624C21.0871 15.2422 20.7792 15.2867 20.4903 15.3929C20.2015 15.4992 19.9381 15.6648 19.7172 15.8791C19.4963 16.0934 19.3228 16.3516 19.2079 16.6372C19.093 16.9227 19.0392 17.2291 19.05 17.5367C19.05 18.5367 19.05 19.5367 19.05 20.5367V20.8768H18.6158V14.861H19.0439V16.0938C19.5692 15.1946 20.3798 14.861 21.3971 14.8367L21.3942 14.8342ZM0.506646 17.6705L0.697895 16.726C1.22312 14.8585 3.36397 14.0813 4.83688 15.2381C5.69929 15.9153 5.91444 16.8748 5.87234 17.9559H1.01367C0.935173 19.887 2.32851 21.053 4.11077 20.4579C4.69808 20.2438 5.14017 19.7557 5.28575 19.1491C5.37994 18.8458 5.53551 18.7937 5.82025 18.8815C5.77276 19.2512 5.64207 19.6053 5.438 19.9172C5.23393 20.2291 4.9618 20.4907 4.64206 20.6823C4.11383 20.9712 3.50777 21.0857 2.91056 21.0093C2.31335 20.933 1.75556 20.6698 1.31696 20.2574C0.883079 19.7696 0.621181 19.153 0.570158 18.5019C0.570158 18.3948 0.534477 18.2949 0.5095 18.1986C0.507121 18.0185 0.505932 17.8425 0.505932 17.6705H0.506646ZM1.01974 17.5399H5.41348C5.38601 16.1401 4.50255 15.1471 3.32437 15.1379C2.01274 15.12 1.07433 16.0913 1.01653 17.5338L1.01974 17.5399Z" fill="#BDEBEA"/>
</svg>
