<svg width="39" height="52" viewBox="0 0 39 52" fill="none" xmlns="http://www.w3.org/2000/svg">
<path d="M1.21296 0.25354H37.3839V37.8369H1.21296V0.25354Z" fill="#F7DF1E"/>
<path d="M10.7222 31.6609L13.4902 29.9203C14.0242 30.9041 14.51 31.7364 15.6752 31.7364C16.7922 31.7364 17.4964 31.2825 17.4964 29.5166V17.5079H20.8955V29.5666C20.8955 33.2247 18.8318 34.8897 15.821 34.8897C13.1018 34.8897 11.5233 33.4264 10.7221 31.6606" fill="black"/>
<path d="M22.7427 31.2825L25.5104 29.6174C26.239 30.8537 27.1859 31.7619 28.8612 31.7619C30.2696 31.7619 31.1677 31.0302 31.1677 30.0211C31.1677 28.8101 30.2451 28.3812 28.6912 27.675L27.8416 27.2963C25.3892 26.2117 23.7623 24.8494 23.7623 21.9733C23.7623 19.3244 25.7047 17.306 28.7399 17.306C30.9008 17.306 32.4547 18.0882 33.5715 20.1317L30.9249 21.8976C30.3422 20.8129 29.7111 20.384 28.7399 20.384C27.7444 20.384 27.1131 21.04 27.1131 21.8976C27.1131 22.9572 27.7444 23.3862 29.2011 24.0422L30.0508 24.4206C32.9402 25.7073 34.567 27.019 34.567 29.9706C34.567 33.1495 32.1633 34.8901 28.9341 34.8901C25.7777 34.8901 23.7381 33.3261 22.7428 31.2825" fill="black"/>
<path d="M3.05559 49.7572C2.85849 49.7572 2.67308 49.7138 2.49936 49.627C2.32898 49.5401 2.19201 49.4165 2.08845 49.2561L2.30393 49.0056C2.40081 49.1459 2.51272 49.2528 2.63967 49.3263C2.76662 49.3998 2.90693 49.4365 3.0606 49.4365C3.4949 49.4365 3.71205 49.1793 3.71205 48.6648V46.5401H2.4292V46.2194H4.07786V48.6498C4.07786 49.0206 3.991 49.2979 3.81728 49.4816C3.6469 49.6654 3.39301 49.7572 3.05559 49.7572ZM5.23396 49.7272L6.83752 46.2194H7.20333L8.80688 49.7272H8.41602L6.94275 46.4349H7.09308L5.61982 49.7272H5.23396ZM5.86536 48.7901L5.97561 48.4894H8.01513L8.12537 48.7901H5.86536ZM10.8817 49.7272L9.32826 46.2194H9.72915L11.1824 49.5217H10.9619L12.4251 46.2194H12.801L11.2475 49.7272H10.8817ZM13.3196 49.7272L14.9231 46.2194H15.2889L16.8925 49.7272H16.5016L15.0283 46.4349H15.1787L13.7054 49.7272H13.3196ZM13.951 48.7901L14.0612 48.4894H16.1007L16.211 48.7901H13.951ZM19.6256 49.7572C19.3617 49.7572 19.1178 49.7138 18.894 49.627C18.6701 49.5368 18.4764 49.4115 18.3127 49.2511C18.149 49.0908 18.0204 48.902 17.9268 48.6849C17.8366 48.4677 17.7915 48.2305 17.7915 47.9733C17.7915 47.716 17.8366 47.4789 17.9268 47.2617C18.0204 47.0446 18.149 46.8558 18.3127 46.6955C18.4797 46.5351 18.6752 46.4115 18.899 46.3246C19.1228 46.2344 19.3667 46.1893 19.6306 46.1893C19.8845 46.1893 20.1234 46.2328 20.3472 46.3196C20.571 46.4031 20.7598 46.5301 20.9134 46.7005L20.6779 46.936C20.5343 46.789 20.3756 46.6838 20.2019 46.6203C20.0282 46.5535 19.8411 46.5201 19.6406 46.5201C19.4302 46.5201 19.2347 46.5568 19.0543 46.6303C18.8739 46.7005 18.7169 46.8024 18.5833 46.936C18.4497 47.0663 18.3444 47.2199 18.2676 47.397C18.1941 47.5707 18.1573 47.7628 18.1573 47.9733C18.1573 48.1838 18.1941 48.3775 18.2676 48.5546C18.3444 48.7283 18.4497 48.882 18.5833 49.0156C18.7169 49.1459 18.8739 49.2478 19.0543 49.3213C19.2347 49.3914 19.4302 49.4265 19.6406 49.4265C19.8411 49.4265 20.0282 49.3931 20.2019 49.3263C20.3756 49.2595 20.5343 49.1526 20.6779 49.0056L20.9134 49.2411C20.7598 49.4115 20.571 49.5401 20.3472 49.627C20.1234 49.7138 19.8828 49.7572 19.6256 49.7572ZM22.3824 49.7272V46.2194H23.6953C23.9926 46.2194 24.2482 46.2678 24.462 46.3647C24.6758 46.4583 24.8395 46.5952 24.9531 46.7756C25.07 46.9527 25.1284 47.1682 25.1284 47.4221C25.1284 47.6693 25.07 47.8831 24.9531 48.0635C24.8395 48.2405 24.6758 48.3775 24.462 48.4744C24.2482 48.5679 23.9926 48.6147 23.6953 48.6147H22.5878L22.7532 48.4443V49.7272H22.3824ZM24.7777 49.7272L23.8757 48.4544H24.2766L25.1836 49.7272H24.7777ZM22.7532 48.4744L22.5878 48.299H23.6852C24.036 48.299 24.3016 48.2222 24.482 48.0685C24.6657 47.9148 24.7576 47.6993 24.7576 47.4221C24.7576 47.1414 24.6657 46.9243 24.482 46.7706C24.3016 46.6169 24.036 46.5401 23.6852 46.5401H22.5878L22.7532 46.3647V48.4744ZM26.6821 49.7272V46.2194H27.0529V49.7272H26.6821ZM28.8726 49.7272V46.2194H30.1855C30.4828 46.2194 30.7384 46.2678 30.9522 46.3647C31.166 46.4583 31.3297 46.5952 31.4433 46.7756C31.5602 46.9527 31.6187 47.1682 31.6187 47.4221C31.6187 47.6693 31.5602 47.8831 31.4433 48.0635C31.3297 48.2405 31.166 48.3775 30.9522 48.4744C30.7384 48.5713 30.4828 48.6197 30.1855 48.6197H29.0781L29.2434 48.4443V49.7272H28.8726ZM29.2434 48.4744L29.0781 48.294H30.1755C30.5263 48.294 30.7919 48.2188 30.9723 48.0685C31.156 47.9148 31.2479 47.6993 31.2479 47.4221C31.2479 47.1414 31.156 46.9243 30.9723 46.7706C30.7919 46.6169 30.5263 46.5401 30.1755 46.5401H29.0781L29.2434 46.3647V48.4744ZM33.663 49.7272V46.5401H32.4303V46.2194H35.2665V46.5401H34.0338V49.7272H33.663Z" fill="#BDEBEA"/>
</svg>
