<svg width="38" height="52" viewBox="0 0 38 52" fill="none" xmlns="http://www.w3.org/2000/svg">
<path d="M11.4129 49.7572C11.2157 49.7572 11.0303 49.7138 10.8566 49.627C10.6862 49.5401 10.5493 49.4165 10.4457 49.2561L10.6612 49.0056C10.7581 49.1459 10.87 49.2528 10.9969 49.3263C11.1239 49.3998 11.2642 49.4365 11.4179 49.4365C11.8522 49.4365 12.0693 49.1793 12.0693 48.6648V46.5401H10.7865V46.2194H12.4351V48.6498C12.4351 49.0206 12.3483 49.2979 12.1745 49.4816C12.0042 49.6654 11.7503 49.7572 11.4129 49.7572ZM14.5566 47.7879H16.4107V48.1036H14.5566V47.7879ZM14.5967 49.4065H16.7064V49.7272H14.2259V46.2194H16.6312V46.5401H14.5967V49.4065ZM19.2236 49.7572C18.963 49.7572 18.7124 49.7155 18.4719 49.632C18.2347 49.5451 18.051 49.4349 17.9207 49.3012L18.066 49.0156C18.1896 49.1359 18.355 49.2378 18.5621 49.3213C18.7726 49.4015 18.9931 49.4415 19.2236 49.4415C19.4441 49.4415 19.6228 49.4148 19.7598 49.3614C19.9001 49.3046 20.002 49.2294 20.0654 49.1359C20.1323 49.0423 20.1657 48.9388 20.1657 48.8252C20.1657 48.6882 20.1256 48.578 20.0454 48.4944C19.9686 48.4109 19.8667 48.3458 19.7397 48.299C19.6128 48.2489 19.4725 48.2055 19.3188 48.1687C19.1651 48.132 19.0114 48.0936 18.8578 48.0535C18.7041 48.01 18.5621 47.9532 18.4318 47.8831C18.3049 47.8129 18.2013 47.7211 18.1211 47.6075C18.0443 47.4905 18.0059 47.3385 18.0059 47.1515C18.0059 46.9777 18.051 46.8191 18.1412 46.6754C18.2347 46.5284 18.3767 46.4115 18.5671 46.3246C18.7575 46.2344 19.0014 46.1893 19.2987 46.1893C19.4958 46.1893 19.6913 46.2177 19.885 46.2745C20.0788 46.328 20.2458 46.4031 20.3862 46.5L20.2609 46.7957C20.1105 46.6955 19.9502 46.622 19.7798 46.5752C19.6128 46.5284 19.4507 46.505 19.2937 46.505C19.0833 46.505 18.9095 46.5334 18.7726 46.5902C18.6356 46.647 18.5337 46.7238 18.4669 46.8207C18.4034 46.9143 18.3717 47.0212 18.3717 47.1414C18.3717 47.2784 18.4101 47.3887 18.4869 47.4722C18.5671 47.5557 18.6707 47.6208 18.7976 47.6676C18.9279 47.7144 19.0699 47.7561 19.2236 47.7929C19.3773 47.8296 19.5293 47.8697 19.6796 47.9132C19.8333 47.9566 19.9736 48.0134 20.1005 48.0835C20.2308 48.1503 20.3344 48.2405 20.4112 48.3541C20.4914 48.4677 20.5315 48.6164 20.5315 48.8001C20.5315 48.9705 20.4847 49.1292 20.3912 49.2762C20.2976 49.4198 20.154 49.5368 19.9602 49.627C19.7698 49.7138 19.5242 49.7572 19.2236 49.7572ZM22.6504 49.7272V46.5401H21.4177V46.2194H24.254V46.5401H23.0212V49.7272H22.6504Z" fill="#BDEBEA"/>
<path d="M33.8495 18.758C33.8495 16.8261 32.2832 15.2598 30.3513 15.2598C30.2269 15.2598 30.1044 15.2665 29.9835 15.2793L34.7883 1.10797H14.3695L19.1677 15.2669C19.0969 15.2624 19.0259 15.2601 18.955 15.2599C17.0231 15.2599 15.4568 16.826 15.4568 18.7582C15.4568 20.3198 16.4803 21.642 17.8928 22.0918C17.1468 23.384 16.208 24.548 15.1421 25.5536C13.6928 26.9208 12.0341 27.9576 10.2401 28.5964C8.10416 27.4992 7.09558 25.0589 8.00562 22.9194C8.10842 22.6777 8.21335 22.4328 8.31363 22.189C9.86099 21.8279 11.0142 20.4407 11.0142 18.7832C11.0142 16.8511 9.44791 15.285 7.51584 15.285C5.58377 15.285 4.01763 16.8511 4.01763 18.7832C4.01763 19.968 4.60701 21.0145 5.50813 21.6473C4.6423 23.6186 3.36952 25.6819 2.97296 28.0731C2.4977 30.9388 2.97136 33.9808 5.44994 35.6987C11.2223 39.6995 17.4882 33.2185 24.0947 31.5893C26.489 30.999 29.1173 31.094 31.2267 29.8724C32.8108 28.9549 33.8552 27.4343 34.1515 25.7273C34.4445 24.0409 34.0176 22.3618 33.0359 21.0004C33.5625 20.372 33.8507 19.5779 33.8495 18.758Z" fill="#99425B"/>
<path d="M33.3097 25.581C33.0524 27.0631 32.137 28.3576 30.7985 29.133C29.5506 29.8557 28.0553 30.0714 26.472 30.2997C25.6239 30.4219 24.7468 30.5486 23.8901 30.7598C21.6247 31.3184 19.4304 32.4083 17.3086 33.4623C13.062 35.5716 9.39466 37.393 5.93666 34.9964C3.40362 33.2409 3.52054 29.9927 3.81563 28.2129C4.08915 26.5638 4.82861 25.045 5.54356 23.5764C5.66537 23.3268 5.7862 23.0767 5.90604 22.8261C6.26644 22.9702 6.64461 23.0651 7.03034 23.1082C6.30246 25.5103 7.44714 28.1222 9.84955 29.3563L10.1785 29.5253L10.5266 29.4013C12.4259 28.7249 14.176 27.6396 15.7283 26.1749C16.7317 25.2283 17.5945 24.1809 18.3036 23.0618C18.5192 23.0943 18.7369 23.1107 18.9549 23.1107C21.1599 23.1107 22.9859 21.4623 23.2685 19.3332C24.171 19.3002 25.1297 19.2999 26.0375 19.333C26.3198 21.4623 28.146 23.1108 30.351 23.1108C31.2731 23.1108 32.1282 22.8219 32.8328 22.331C33.3219 23.3323 33.5045 24.4588 33.3097 25.581ZM7.51585 16.1393C8.97373 16.1393 10.1597 17.3254 10.1597 18.7833C10.1597 19.3069 10.006 19.7952 9.74222 20.2064C9.30278 20.8918 8.55573 21.3616 7.69749 21.4202C7.63743 21.4242 7.57684 21.4271 7.51585 21.4271C7.19093 21.4271 6.87973 21.3678 6.59196 21.2603C6.01241 21.0423 5.52709 20.629 5.21971 20.0915C4.99147 19.6933 4.87154 19.2422 4.87189 18.7833C4.87189 17.3254 6.05798 16.1393 7.51585 16.1393ZM16.3112 18.7581C16.3112 17.4335 17.2903 16.3337 18.5626 16.1436C18.6907 16.1243 18.8217 16.1143 18.955 16.1143C19.8026 16.1143 20.5572 16.5158 21.0412 17.1379C21.1624 17.293 21.2659 17.4612 21.3498 17.6393C21.5142 17.9893 21.5992 18.3714 21.5989 18.7581C21.5989 18.9694 21.5733 19.1749 21.5263 19.372C21.2686 20.4506 20.3488 21.2752 19.2217 21.3886C19.1341 21.3974 19.0452 21.4019 18.955 21.4019C18.4465 21.4024 17.9487 21.2552 17.5222 20.9783C16.7943 20.5068 16.3112 19.688 16.3112 18.7581ZM27.3458 15.6141C26.7705 16.1633 26.3564 16.8594 26.1485 17.6271C25.152 17.5904 24.1545 17.5904 23.1579 17.6271C22.9342 16.7973 22.4705 16.0651 21.8467 15.509L24.5825 9.97715L27.3458 15.6142V15.6141ZM15.5611 1.96256H33.5964L29.3366 14.5259C29.1533 14.5698 28.9731 14.6256 28.7971 14.693L24.5892 6.10888L20.3692 14.6417C20.1853 14.5786 19.9972 14.5279 19.8065 14.4901L15.5611 1.96256ZM32.9949 18.7582C32.9949 19.0232 32.9553 19.2792 32.8825 19.5209C32.7097 20.0899 32.3508 20.5844 31.8634 20.9251C31.4204 21.236 30.8922 21.4025 30.351 21.4021C29.1303 21.4021 28.1006 20.5702 27.7978 19.4436C27.7376 19.2201 27.7072 18.9897 27.7072 18.7582C27.7072 18.3968 27.7802 18.0522 27.912 17.7382C27.98 17.5775 28.0638 17.424 28.1621 17.2799C28.6379 16.5775 29.4407 16.1144 30.351 16.1144C30.4345 16.1144 30.5168 16.1187 30.5985 16.1264C31.9407 16.2514 32.995 17.3837 32.995 18.7582H32.9949ZM34.7038 18.7582C34.7038 16.6332 33.1726 14.8601 31.156 14.4814L35.98 0.25354H13.1777L18.0092 14.5102C16.0626 14.9434 14.6024 16.6829 14.6024 18.7581C14.6024 20.3164 15.4259 21.685 16.6601 22.4542C16.0664 23.3387 15.3625 24.1709 14.5558 24.9321C13.2764 26.139 11.8511 27.0543 10.3146 27.6566C8.76679 26.6844 8.11256 24.8509 8.79196 23.2537L8.84523 23.1285L8.9451 22.8936C10.6451 22.3007 11.8684 20.6827 11.8684 18.7833C11.8684 16.3831 9.91586 14.4305 7.51585 14.4305C5.11571 14.4305 3.16313 16.3831 3.16313 18.7833C3.16313 19.9947 3.66116 21.0917 4.46254 21.8816C4.31308 22.1983 4.16136 22.5139 4.00739 22.8284C3.27459 24.3333 2.44418 26.039 2.13005 27.9332C1.50631 31.6951 2.51249 34.7023 4.96337 36.4008C6.45054 37.4315 7.96089 37.8369 9.48068 37.8369C12.3424 37.8369 15.2374 36.3991 18.0688 34.9926C20.1079 33.9799 22.2166 32.9326 24.2994 32.4188C25.0744 32.2277 25.8718 32.1127 26.7161 31.991C28.3903 31.7494 30.1215 31.4997 31.655 30.6117C33.4326 29.5821 34.6493 27.8549 34.9934 25.8734C35.2887 24.1723 34.9333 22.4684 34.0664 21.0234C34.4841 20.3417 34.7048 19.5576 34.7039 18.7581L34.7038 18.7582Z" fill="white"/>
</svg>
