<svg width="39" height="52" viewBox="0 0 39 52" fill="none" xmlns="http://www.w3.org/2000/svg">
<path d="M27.3817 15.21C25.4962 6.47641 21.5612 4.1508 20.5627 2.50686C20.02 1.61259 19.4666 0.25354 19.4666 0.25354C19.4125 1.02817 19.3166 1.51877 18.687 2.10749C17.4261 3.28751 12.068 7.87161 11.6179 17.7955C11.1982 27.048 18.0943 32.7545 19.0108 33.3441C19.7109 33.7056 20.5684 33.351 20.9783 33.0196C24.3017 30.6234 28.8483 24.2344 27.3776 15.21" fill="#10AA50"/>
<path d="M19.7517 28.4156C19.5787 30.7068 19.4541 32.0401 19.0138 33.3466C19.0138 33.3466 19.304 35.5268 19.5057 37.8369H20.2247C20.3963 36.2099 20.6583 34.5947 21.0092 32.9997C20.0779 32.5203 19.7869 30.4254 19.7517 28.4156Z" fill="#B8C4C2"/>
<path d="M21.0087 33.0014C20.0676 32.5453 19.7954 30.4081 19.7536 28.4156C19.9855 25.1306 20.0525 21.835 19.9545 18.5425C19.9053 16.8151 19.9791 2.54035 19.5495 0.450562C19.7233 0.859395 20.143 1.81994 20.5627 2.50592C21.5654 4.15072 25.4971 6.47634 27.381 15.2107C28.8492 24.212 24.3297 30.5898 21.0087 33.0014Z" fill="#12924F"/>
<path d="M2.04214 49.7271V46.2193H2.34782L3.95137 48.9554H3.79102L5.37954 46.2193H5.68522V49.7271H5.32943V46.7756H5.41462L3.95137 49.2811H3.77598L2.30272 46.7756H2.39793V49.7271H2.04214ZM9.03995 49.7572C8.77603 49.7572 8.53048 49.7137 8.30331 49.6269C8.07948 49.5367 7.88405 49.4114 7.71701 49.2511C7.55332 49.0874 7.4247 48.8986 7.33116 48.6848C7.24096 48.4677 7.19586 48.2305 7.19586 47.9732C7.19586 47.716 7.24096 47.4805 7.33116 47.2667C7.4247 47.0495 7.55332 46.8608 7.71701 46.7004C7.88405 46.5367 8.07948 46.4114 8.30331 46.3246C8.52714 46.2344 8.77269 46.1893 9.03995 46.1893C9.30386 46.1893 9.54774 46.2344 9.77157 46.3246C9.9954 46.4114 10.1892 46.535 10.3529 46.6954C10.5199 46.8557 10.6485 47.0445 10.7387 47.2616C10.8323 47.4788 10.879 47.716 10.879 47.9732C10.879 48.2305 10.8323 48.4677 10.7387 48.6848C10.6485 48.9019 10.5199 49.0907 10.3529 49.2511C10.1892 49.4114 9.9954 49.5367 9.77157 49.6269C9.54774 49.7137 9.30386 49.7572 9.03995 49.7572ZM9.03995 49.4264C9.25041 49.4264 9.44417 49.3914 9.62123 49.3212C9.80163 49.2477 9.95698 49.1458 10.0873 49.0155C10.2209 48.8819 10.3245 48.7282 10.398 48.5545C10.4715 48.3775 10.5082 48.1837 10.5082 47.9732C10.5082 47.7628 10.4715 47.5707 10.398 47.3969C10.3245 47.2199 10.2209 47.0662 10.0873 46.9359C9.95698 46.8023 9.80163 46.7004 9.62123 46.6302C9.44417 46.5567 9.25041 46.52 9.03995 46.52C8.82948 46.52 8.63405 46.5567 8.45365 46.6302C8.27325 46.7004 8.11623 46.8023 7.9826 46.9359C7.85231 47.0662 7.74875 47.2199 7.67191 47.3969C7.59842 47.5707 7.56167 47.7628 7.56167 47.9732C7.56167 48.1803 7.59842 48.3724 7.67191 48.5495C7.74875 48.7266 7.85231 48.8819 7.9826 49.0155C8.11623 49.1458 8.27325 49.2477 8.45365 49.3212C8.63405 49.3914 8.82948 49.4264 9.03995 49.4264ZM12.3886 49.7271V46.2193H12.6943L15.1146 49.2661H14.9543V46.2193H15.3201V49.7271H15.0144L12.5991 46.6804H12.7594V49.7271H12.3886ZM18.6818 49.7572C18.4146 49.7572 18.1674 49.7137 17.9402 49.6269C17.7164 49.5367 17.5209 49.4114 17.3539 49.2511C17.1902 49.0907 17.0616 48.9019 16.968 48.6848C16.8778 48.4677 16.8327 48.2305 16.8327 47.9732C16.8327 47.716 16.8778 47.4788 16.968 47.2616C17.0616 47.0445 17.1919 46.8557 17.3589 46.6954C17.5259 46.535 17.7214 46.4114 17.9452 46.3246C18.1724 46.2344 18.4196 46.1893 18.6869 46.1893C18.9541 46.1893 19.198 46.231 19.4185 46.3145C19.6423 46.3981 19.8327 46.525 19.9897 46.6954L19.7592 46.9309C19.6122 46.7839 19.4502 46.6787 19.2732 46.6152C19.0961 46.5517 18.9057 46.52 18.7019 46.52C18.4847 46.52 18.2843 46.5567 18.1006 46.6302C17.9202 46.7004 17.7615 46.8023 17.6245 46.9359C17.4909 47.0662 17.3856 47.2199 17.3088 47.3969C17.2353 47.5707 17.1986 47.7628 17.1986 47.9732C17.1986 48.1803 17.2353 48.3724 17.3088 48.5495C17.3856 48.7266 17.4909 48.8819 17.6245 49.0155C17.7615 49.1458 17.9202 49.2477 18.1006 49.3212C18.2843 49.3914 18.4831 49.4264 18.6969 49.4264C18.8973 49.4264 19.0861 49.3964 19.2631 49.3362C19.4435 49.2761 19.6089 49.1742 19.7592 49.0306L19.9697 49.3112C19.8027 49.4582 19.6072 49.5701 19.3834 49.6469C19.1596 49.7204 18.9257 49.7572 18.6818 49.7572ZM19.6139 49.2661V47.9732H19.9697V49.3112L19.6139 49.2661ZM23.231 49.7572C22.9671 49.7572 22.7216 49.7137 22.4944 49.6269C22.2706 49.5367 22.0751 49.4114 21.9081 49.2511C21.7444 49.0874 21.6158 48.8986 21.5222 48.6848C21.432 48.4677 21.3869 48.2305 21.3869 47.9732C21.3869 47.716 21.432 47.4805 21.5222 47.2667C21.6158 47.0495 21.7444 46.8608 21.9081 46.7004C22.0751 46.5367 22.2706 46.4114 22.4944 46.3246C22.7182 46.2344 22.9638 46.1893 23.231 46.1893C23.4949 46.1893 23.7388 46.2344 23.9626 46.3246C24.1865 46.4114 24.3802 46.535 24.5439 46.6954C24.711 46.8557 24.8396 47.0445 24.9298 47.2616C25.0233 47.4788 25.0701 47.716 25.0701 47.9732C25.0701 48.2305 25.0233 48.4677 24.9298 48.6848C24.8396 48.9019 24.711 49.0907 24.5439 49.2511C24.3802 49.4114 24.1865 49.5367 23.9626 49.6269C23.7388 49.7137 23.4949 49.7572 23.231 49.7572ZM23.231 49.4264C23.4415 49.4264 23.6352 49.3914 23.8123 49.3212C23.9927 49.2477 24.148 49.1458 24.2783 49.0155C24.412 48.8819 24.5155 48.7282 24.589 48.5545C24.6625 48.3775 24.6993 48.1837 24.6993 47.9732C24.6993 47.7628 24.6625 47.5707 24.589 47.3969C24.5155 47.2199 24.412 47.0662 24.2783 46.9359C24.148 46.8023 23.9927 46.7004 23.8123 46.6302C23.6352 46.5567 23.4415 46.52 23.231 46.52C23.0205 46.52 22.8251 46.5567 22.6447 46.6302C22.4643 46.7004 22.3073 46.8023 22.1737 46.9359C22.0434 47.0662 21.9398 47.2199 21.863 47.3969C21.7895 47.5707 21.7527 47.7628 21.7527 47.9732C21.7527 48.1803 21.7895 48.3724 21.863 48.5495C21.9398 48.7266 22.0434 48.8819 22.1737 49.0155C22.3073 49.1458 22.4643 49.2477 22.6447 49.3212C22.8251 49.3914 23.0205 49.4264 23.231 49.4264ZM28.5696 49.7271V46.2193H29.9977C30.3719 46.2193 30.6993 46.2945 30.9799 46.4448C31.2639 46.5918 31.4844 46.7973 31.6414 47.0612C31.7984 47.3251 31.8769 47.6291 31.8769 47.9732C31.8769 48.3173 31.7984 48.6213 31.6414 48.8852C31.4844 49.1492 31.2639 49.3563 30.9799 49.5066C30.6993 49.6536 30.3719 49.7271 29.9977 49.7271H28.5696ZM28.9404 49.4064H29.9777C30.2884 49.4064 30.5573 49.3463 30.7845 49.226C31.015 49.1024 31.1937 48.9337 31.3207 48.7199C31.4476 48.5027 31.5111 48.2538 31.5111 47.9732C31.5111 47.6893 31.4476 47.4404 31.3207 47.2266C31.1937 47.0128 31.015 46.8457 30.7845 46.7255C30.5573 46.6018 30.2884 46.54 29.9777 46.54H28.9404V49.4064ZM33.388 49.7271V46.2193H34.9014C35.2922 46.2193 35.5946 46.2978 35.8084 46.4549C36.0255 46.6119 36.1341 46.834 36.1341 47.1213C36.1341 47.3118 36.089 47.4721 35.9988 47.6024C35.9119 47.7327 35.7917 47.8312 35.638 47.8981C35.4877 47.9649 35.3223 47.9983 35.1419 47.9983L35.2271 47.878C35.4509 47.878 35.643 47.9131 35.8034 47.9832C35.9671 48.0501 36.094 48.152 36.1842 48.2889C36.2744 48.4226 36.3195 48.5896 36.3195 48.79C36.3195 49.0874 36.2093 49.3179 35.9888 49.4816C35.7716 49.6453 35.4426 49.7271 35.0016 49.7271H33.388ZM33.7588 49.4214H34.9966C35.3039 49.4214 35.5395 49.3697 35.7032 49.2661C35.8668 49.1592 35.9487 48.9905 35.9487 48.76C35.9487 48.5328 35.8668 48.3674 35.7032 48.2639C35.5395 48.157 35.3039 48.1035 34.9966 48.1035H33.7188V47.7978H34.8763C35.1569 47.7978 35.3741 47.7444 35.5278 47.6375C35.6848 47.5306 35.7633 47.3719 35.7633 47.1614C35.7633 46.9476 35.6848 46.7889 35.5278 46.6854C35.3741 46.5785 35.1569 46.525 34.8763 46.525H33.7588V49.4214Z" fill="#BDEBEA"/>
</svg>
