<svg width="39" height="52" viewBox="0 0 39 52" fill="none" xmlns="http://www.w3.org/2000/svg">
<path d="M7.77892 49.5694V46.0616H8.08459L10.505 49.1084H10.3446V46.0616H10.7104V49.5694H10.4047L7.98938 46.5227H8.14974V49.5694H7.77892ZM12.8645 47.6301H14.7186V47.9458H12.8645V47.6301ZM12.9046 49.2487H15.0142V49.5694H12.5337V46.0616H14.9391V46.3824H12.9046V49.2487ZM17.5314 49.5995C17.2709 49.5995 17.0203 49.5577 16.7798 49.4742C16.5426 49.3874 16.3588 49.2771 16.2286 49.1435L16.3739 48.8578C16.4975 48.9781 16.6629 49.08 16.87 49.1635C17.0804 49.2437 17.3009 49.2838 17.5314 49.2838C17.7519 49.2838 17.9307 49.2571 18.0676 49.2036C18.2079 49.1468 18.3098 49.0717 18.3733 48.9781C18.4401 48.8846 18.4735 48.781 18.4735 48.6674C18.4735 48.5305 18.4334 48.4202 18.3533 48.3367C18.2764 48.2532 18.1745 48.188 18.0476 48.1413C17.9206 48.0911 17.7803 48.0477 17.6267 48.011C17.473 47.9742 17.3193 47.9358 17.1656 47.8957C17.012 47.8523 16.87 47.7955 16.7397 47.7253C16.6127 47.6552 16.5092 47.5633 16.429 47.4497C16.3522 47.3328 16.3137 47.1808 16.3137 46.9937C16.3137 46.82 16.3588 46.6613 16.449 46.5177C16.5426 46.3707 16.6846 46.2537 16.875 46.1669C17.0654 46.0767 17.3093 46.0316 17.6066 46.0316C17.8037 46.0316 17.9992 46.06 18.1929 46.1168C18.3867 46.1702 18.5537 46.2454 18.694 46.3423L18.5687 46.6379C18.4184 46.5377 18.2581 46.4642 18.0877 46.4174C17.9206 46.3707 17.7586 46.3473 17.6016 46.3473C17.3911 46.3473 17.2174 46.3757 17.0804 46.4325C16.9435 46.4893 16.8416 46.5661 16.7748 46.663C16.7113 46.7565 16.6796 46.8634 16.6796 46.9837C16.6796 47.1207 16.718 47.2309 16.7948 47.3144C16.875 47.3979 16.9786 47.4631 17.1055 47.5099C17.2358 47.5566 17.3778 47.5984 17.5314 47.6351C17.6851 47.6719 17.8371 47.712 17.9875 47.7554C18.1411 47.7988 18.2814 47.8556 18.4084 47.9258C18.5387 47.9926 18.6422 48.0828 18.7191 48.1964C18.7993 48.31 18.8393 48.4586 18.8393 48.6424C18.8393 48.8127 18.7926 48.9714 18.699 49.1184C18.6055 49.2621 18.4618 49.379 18.2681 49.4692C18.0777 49.5561 17.8321 49.5995 17.5314 49.5995ZM20.9583 49.5694V46.3824H19.7256V46.0616H22.5618V46.3824H21.3291V49.5694H20.9583ZM26.1984 49.5995C26.0013 49.5995 25.8159 49.5561 25.6422 49.4692C25.4718 49.3823 25.3348 49.2587 25.2312 49.0984L25.4467 48.8478C25.5436 48.9881 25.6555 49.095 25.7825 49.1685C25.9094 49.242 26.0497 49.2788 26.2034 49.2788C26.6377 49.2788 26.8548 49.0215 26.8548 48.5071V46.3824H25.572V46.0616H27.2207V48.492C27.2207 48.8629 27.1338 49.1401 26.9601 49.3239C26.7897 49.5076 26.5358 49.5995 26.1984 49.5995ZM29.9786 49.5995C29.718 49.5995 29.4674 49.5577 29.2269 49.4742C28.9897 49.3874 28.806 49.2771 28.6757 49.1435L28.821 48.8578C28.9446 48.9781 29.11 49.08 29.3171 49.1635C29.5276 49.2437 29.748 49.2838 29.9786 49.2838C30.199 49.2838 30.3778 49.2571 30.5147 49.2036C30.6551 49.1468 30.757 49.0717 30.8204 48.9781C30.8872 48.8846 30.9206 48.781 30.9206 48.6674C30.9206 48.5305 30.8806 48.4202 30.8004 48.3367C30.7235 48.2532 30.6217 48.188 30.4947 48.1413C30.3678 48.0911 30.2274 48.0477 30.0738 48.011C29.9201 47.9742 29.7664 47.9358 29.6127 47.8957C29.4591 47.8523 29.3171 47.7955 29.1868 47.7253C29.0599 47.6552 28.9563 47.5633 28.8761 47.4497C28.7993 47.3328 28.7609 47.1808 28.7609 46.9937C28.7609 46.82 28.806 46.6613 28.8962 46.5177C28.9897 46.3707 29.1317 46.2537 29.3221 46.1669C29.5125 46.0767 29.7564 46.0316 30.0537 46.0316C30.2508 46.0316 30.4463 46.06 30.64 46.1168C30.8338 46.1702 31.0008 46.2454 31.1411 46.3423L31.0159 46.6379C30.8655 46.5377 30.7052 46.4642 30.5348 46.4174C30.3678 46.3707 30.2057 46.3473 30.0487 46.3473C29.8382 46.3473 29.6645 46.3757 29.5276 46.4325C29.3906 46.4893 29.2887 46.5661 29.2219 46.663C29.1584 46.7565 29.1267 46.8634 29.1267 46.9837C29.1267 47.1207 29.1651 47.2309 29.2419 47.3144C29.3221 47.3979 29.4257 47.4631 29.5526 47.5099C29.6829 47.5566 29.8249 47.5984 29.9786 47.6351C30.1322 47.6719 30.2842 47.712 30.4346 47.7554C30.5882 47.7988 30.7286 47.8556 30.8555 47.9258C30.9858 47.9926 31.0894 48.0828 31.1662 48.1964C31.2464 48.31 31.2865 48.4586 31.2865 48.6424C31.2865 48.8127 31.2397 48.9714 31.1461 49.1184C31.0526 49.2621 30.909 49.379 30.7152 49.4692C30.5248 49.5561 30.2792 49.5995 29.9786 49.5995Z" fill="#BDEBEA"/>
<path fill-rule="evenodd" clip-rule="evenodd" d="M22.8061 0.0957642C22.5481 0.0986976 22.2923 0.144045 22.049 0.22999C24.2114 1.6501 21.6732 3.71182 22.8544 5.46481C22.7718 4.87802 22.8649 4.27989 23.1219 3.74596C23.379 3.21203 23.7885 2.76624 24.2987 2.46486C24.6812 2.14674 24.9255 2.03265 24.8436 1.50648C24.7148 0.644749 23.5658 0.0957642 22.8061 0.0957642ZM25.8933 0.651461C25.5953 2.15882 25.2222 2.21385 24.1175 3.18431C23.6862 3.52366 23.3817 3.99834 23.2531 4.53186C23.1246 5.06538 23.1794 5.62665 23.4088 6.1252C18.8451 4.35342 12.9955 3.28229 8.70697 6.34802C7.16471 7.45002 6.22244 9.03254 4.32045 9.67817C3.09094 10.0983 1.88291 9.97481 1.11513 11.1936C0.833356 11.5455 0.686159 11.9863 0.699933 12.4369C0.713708 12.8876 0.887554 13.3185 1.1903 13.6526C1.41848 13.8875 1.86143 14.0378 2.04398 14.2768C2.15002 14.411 2.14733 14.5452 2.248 14.7237C2.42549 15.14 2.68266 15.5176 3.00504 15.8351C3.20101 15.9975 3.88019 16.1559 3.99563 16.3291C4.13925 16.5452 3.76342 17.4029 4.07885 17.5371C4.29227 17.6351 4.91373 16.5385 4.97414 16.4418C4.85065 17.3049 4.68823 18.8364 5.65869 17.5613C6.11909 16.9559 6.14727 16.7559 6.92176 16.6217C8.45029 16.3599 10.0165 16.4178 11.5215 16.7917C13.0266 17.1656 14.4378 17.8474 15.6661 18.7941C16.8944 19.7407 17.9132 20.9317 18.6581 22.2919C19.403 23.6521 19.8579 25.1519 19.994 26.6967C19.8491 26.0256 18.9726 24.9518 18.1565 25.2068C17.8088 25.3142 17.68 25.9142 17.4518 26.2618C17.1637 26.7029 16.8082 27.0961 16.3981 27.4269C16.4681 26.7762 16.4355 26.1185 16.3015 25.4779C16.0572 26.4819 15.5673 28.1477 14.3337 27.8779C13.9228 27.8152 13.5378 27.6382 13.2226 27.3671C12.9074 27.0961 12.6748 26.7419 12.5512 26.345C12.3915 25.3249 13.4693 24.129 11.7365 24.0444C8.25999 23.8739 9.06401 28.9866 11.1163 30.3195C10.6447 30.3717 10.1846 30.4999 9.75393 30.6993C11.0566 31.4563 12.5244 31.8837 14.0298 31.9444C15.5352 32.0051 17.0327 31.6972 18.3921 31.0476C19.7514 30.3979 20.9316 29.4261 21.83 28.2166C22.7283 27.0072 23.3178 25.5966 23.547 24.1075C24.0251 26.2858 23.718 28.563 22.6799 30.5369C22.2454 31.3621 21.6888 32.1169 21.0289 32.7758C20.6262 33.1785 19.8289 33.6214 19.5672 34.0389C21.1962 33.8235 22.7881 33.3863 24.2987 32.7396C22.7351 34.8701 20.657 36.5696 18.2585 37.6791C20.834 37.4968 23.3236 36.6763 25.5028 35.2917C27.6821 33.907 29.4824 32.0018 30.7415 29.7477C30.3403 32.0021 29.4491 34.141 28.1308 36.0134C29.9039 34.8264 31.4123 33.2856 32.5615 31.4878C33.7107 29.69 34.4757 27.6741 34.8086 25.5665C35.1385 27.1094 35.233 28.6933 35.0891 30.2644C36.5461 28.2409 37.5305 25.9162 37.9697 23.4617C38.409 21.0072 38.292 18.4854 37.6273 16.0821C37.1187 14.214 36.3558 12.4246 35.3603 10.7641C34.9749 10.117 34.5532 9.49227 34.0972 8.89295C33.9187 8.66074 32.9643 7.81109 32.9643 7.55069C32.9563 7.57664 32.9496 7.57664 32.9442 7.55069C32.9442 11.9345 28.2463 14.6794 24.3121 13.5412C25.835 13.4217 27.2716 12.7862 28.3845 11.7397C29.4974 10.6932 30.22 9.29831 30.4328 7.78558C30.6124 6.25589 30.259 4.71105 29.4324 3.41151C28.6057 2.11196 27.3562 1.13717 25.8946 0.651461H25.8933Z" fill="url(#paint0_linear_2_282)"/>
<defs>
<linearGradient id="paint0_linear_2_282" x1="19.4625" y1="37.6791" x2="19.4625" y2="0.0957642" gradientUnits="userSpaceOnUse">
<stop stop-color="#FFB199"/>
<stop offset="1" stop-color="#FF0844"/>
</linearGradient>
</defs>
</svg>
