<svg width="42" height="52" viewBox="0 0 42 52" fill="none" xmlns="http://www.w3.org/2000/svg">
<path d="M0.841576 49.7272V46.2194H2.15449C2.45181 46.2194 2.70738 46.2678 2.92119 46.3647C3.13499 46.4583 3.29869 46.5952 3.41228 46.7756C3.5292 46.9527 3.58767 47.1682 3.58767 47.4221C3.58767 47.6693 3.5292 47.8831 3.41228 48.0635C3.29869 48.2405 3.13499 48.3775 2.92119 48.4744C2.70738 48.5713 2.45181 48.6197 2.15449 48.6197H1.04703L1.2124 48.4443V49.7272H0.841576ZM1.2124 48.4744L1.04703 48.294H2.14447C2.49524 48.294 2.76083 48.2188 2.94123 48.0685C3.12497 47.9148 3.21684 47.6993 3.21684 47.4221C3.21684 47.1414 3.12497 46.9243 2.94123 46.7706C2.76083 46.6169 2.49524 46.5401 2.14447 46.5401H1.04703L1.2124 46.3647V48.4744ZM6.65022 49.7572C6.3863 49.7572 6.14076 49.7138 5.91359 49.627C5.68976 49.5368 5.49433 49.4115 5.32729 49.2511C5.16359 49.0874 5.03497 48.8987 4.94143 48.6849C4.85123 48.4677 4.80613 48.2305 4.80613 47.9733C4.80613 47.716 4.85123 47.4805 4.94143 47.2667C5.03497 47.0496 5.16359 46.8608 5.32729 46.7005C5.49433 46.5368 5.68976 46.4115 5.91359 46.3246C6.13742 46.2344 6.38296 46.1893 6.65022 46.1893C6.91414 46.1893 7.15801 46.2344 7.38184 46.3246C7.60567 46.4115 7.79944 46.5351 7.96313 46.6955C8.13017 46.8558 8.25879 47.0446 8.34899 47.2617C8.44253 47.4789 8.4893 47.716 8.4893 47.9733C8.4893 48.2305 8.44253 48.4677 8.34899 48.6849C8.25879 48.902 8.13017 49.0908 7.96313 49.2511C7.79944 49.4115 7.60567 49.5368 7.38184 49.627C7.15801 49.7138 6.91414 49.7572 6.65022 49.7572ZM6.65022 49.4265C6.86069 49.4265 7.05445 49.3914 7.23151 49.3213C7.41191 49.2478 7.56726 49.1459 7.69754 49.0156C7.83117 48.882 7.93474 48.7283 8.00823 48.5546C8.08173 48.3775 8.11848 48.1838 8.11848 47.9733C8.11848 47.7628 8.08173 47.5707 8.00823 47.397C7.93474 47.2199 7.83117 47.0663 7.69754 46.936C7.56726 46.8024 7.41191 46.7005 7.23151 46.6303C7.05445 46.5568 6.86069 46.5201 6.65022 46.5201C6.43976 46.5201 6.24432 46.5568 6.06392 46.6303C5.88352 46.7005 5.72651 46.8024 5.59288 46.936C5.46259 47.0663 5.35903 47.2199 5.28219 47.397C5.20869 47.5707 5.17194 47.7628 5.17194 47.9733C5.17194 48.1804 5.20869 48.3725 5.28219 48.5496C5.35903 48.7266 5.46259 48.882 5.59288 49.0156C5.72651 49.1459 5.88352 49.2478 6.06392 49.3213C6.24432 49.3914 6.43976 49.4265 6.65022 49.4265ZM10.966 49.7572C10.7054 49.7572 10.4549 49.7155 10.2144 49.632C9.97717 49.5451 9.79343 49.4349 9.66314 49.3012L9.80846 49.0156C9.93207 49.1359 10.0974 49.2378 10.3046 49.3213C10.515 49.4015 10.7355 49.4415 10.966 49.4415C11.1865 49.4415 11.3652 49.4148 11.5022 49.3614C11.6425 49.3046 11.7444 49.2294 11.8079 49.1359C11.8747 49.0423 11.9081 48.9388 11.9081 48.8252C11.9081 48.6882 11.868 48.578 11.7878 48.4944C11.711 48.4109 11.6091 48.3458 11.4822 48.299C11.3552 48.2489 11.2149 48.2055 11.0612 48.1687C10.9076 48.132 10.7539 48.0936 10.6002 48.0535C10.4465 48.01 10.3046 47.9532 10.1743 47.8831C10.0473 47.8129 9.94376 47.7211 9.86358 47.6075C9.78674 47.4905 9.74833 47.3385 9.74833 47.1515C9.74833 46.9777 9.79343 46.8191 9.88363 46.6754C9.97717 46.5284 10.1191 46.4115 10.3096 46.3246C10.5 46.2344 10.7439 46.1893 11.0412 46.1893C11.2383 46.1893 11.4337 46.2177 11.6275 46.2745C11.8213 46.328 11.9883 46.4031 12.1286 46.5L12.0033 46.7957C11.853 46.6955 11.6926 46.622 11.5223 46.5752C11.3552 46.5284 11.1932 46.505 11.0362 46.505C10.8257 46.505 10.652 46.5334 10.515 46.5902C10.3781 46.647 10.2762 46.7238 10.2093 46.8207C10.1459 46.9143 10.1141 47.0212 10.1141 47.1414C10.1141 47.2784 10.1526 47.3887 10.2294 47.4722C10.3096 47.5557 10.4131 47.6208 10.5401 47.6676C10.6704 47.7144 10.8124 47.7561 10.966 47.7929C11.1197 47.8296 11.2717 47.8697 11.422 47.9132C11.5757 47.9566 11.716 48.0134 11.843 48.0835C11.9733 48.1503 12.0768 48.2405 12.1537 48.3541C12.2338 48.4677 12.2739 48.6164 12.2739 48.8001C12.2739 48.9705 12.2272 49.1292 12.1336 49.2762C12.0401 49.4198 11.8964 49.5368 11.7027 49.627C11.5122 49.7138 11.2667 49.7572 10.966 49.7572ZM14.3929 49.7272V46.5401H13.1601V46.2194H15.9964V46.5401H14.7637V49.7272H14.3929ZM18.7567 49.7572C18.4894 49.7572 18.2422 49.7138 18.0151 49.627C17.7912 49.5368 17.5958 49.4115 17.4288 49.2511C17.2651 49.0908 17.1364 48.902 17.0429 48.6849C16.9527 48.4677 16.9076 48.2305 16.9076 47.9733C16.9076 47.716 16.9527 47.4789 17.0429 47.2617C17.1364 47.0446 17.2667 46.8558 17.4338 46.6955C17.6008 46.5351 17.7962 46.4115 18.0201 46.3246C18.2472 46.2344 18.4945 46.1893 18.7617 46.1893C19.029 46.1893 19.2729 46.2311 19.4933 46.3146C19.7172 46.3981 19.9076 46.5251 20.0646 46.6955L19.8341 46.931C19.6871 46.784 19.5251 46.6787 19.348 46.6153C19.171 46.5518 18.9805 46.5201 18.7768 46.5201C18.5596 46.5201 18.3592 46.5568 18.1754 46.6303C17.995 46.7005 17.8363 46.8024 17.6994 46.936C17.5657 47.0663 17.4605 47.2199 17.3837 47.397C17.3102 47.5707 17.2734 47.7628 17.2734 47.9733C17.2734 48.1804 17.3102 48.3725 17.3837 48.5496C17.4605 48.7266 17.5657 48.882 17.6994 49.0156C17.8363 49.1459 17.995 49.2478 18.1754 49.3213C18.3592 49.3914 18.5579 49.4265 18.7717 49.4265C18.9722 49.4265 19.1609 49.3964 19.338 49.3363C19.5184 49.2762 19.6838 49.1743 19.8341 49.0306L20.0446 49.3113C19.8775 49.4582 19.6821 49.5702 19.4583 49.647C19.2344 49.7205 19.0006 49.7572 18.7567 49.7572ZM19.6888 49.2662V47.9733H20.0446V49.3113L19.6888 49.2662ZM21.7725 49.7272V46.2194H23.0854C23.3827 46.2194 23.6383 46.2678 23.8521 46.3647C24.0659 46.4583 24.2296 46.5952 24.3432 46.7756C24.4601 46.9527 24.5186 47.1682 24.5186 47.4221C24.5186 47.6693 24.4601 47.8831 24.3432 48.0635C24.2296 48.2405 24.0659 48.3775 23.8521 48.4744C23.6383 48.5679 23.3827 48.6147 23.0854 48.6147H21.9779L22.1433 48.4443V49.7272H21.7725ZM24.1678 49.7272L23.2658 48.4544H23.6667L24.5737 49.7272H24.1678ZM22.1433 48.4744L21.9779 48.299H23.0754C23.4261 48.299 23.6917 48.2222 23.8721 48.0685C24.0559 47.9148 24.1477 47.6993 24.1477 47.4221C24.1477 47.1414 24.0559 46.9243 23.8721 46.7706C23.6917 46.6169 23.4261 46.5401 23.0754 46.5401H21.9779L22.1433 46.3647V48.4744ZM26.4029 47.7879H28.257V48.1036H26.4029V47.7879ZM26.443 49.4065H28.5527V49.7272H26.0722V46.2194H28.4775V46.5401H26.443V49.4065ZM31.0699 49.7572C30.8093 49.7572 30.5588 49.7155 30.3182 49.632C30.081 49.5451 29.8973 49.4349 29.767 49.3012L29.9123 49.0156C30.0359 49.1359 30.2013 49.2378 30.4084 49.3213C30.6189 49.4015 30.8394 49.4415 31.0699 49.4415C31.2904 49.4415 31.4691 49.4148 31.6061 49.3614C31.7464 49.3046 31.8483 49.2294 31.9118 49.1359C31.9786 49.0423 32.012 48.9388 32.012 48.8252C32.012 48.6882 31.9719 48.578 31.8917 48.4944C31.8149 48.4109 31.713 48.3458 31.586 48.299C31.4591 48.2489 31.3188 48.2055 31.1651 48.1687C31.0114 48.132 30.8578 48.0936 30.7041 48.0535C30.5504 48.01 30.4084 47.9532 30.2781 47.8831C30.1512 47.8129 30.0476 47.7211 29.9675 47.6075C29.8906 47.4905 29.8522 47.3385 29.8522 47.1515C29.8522 46.9777 29.8973 46.8191 29.9875 46.6754C30.081 46.5284 30.223 46.4115 30.4134 46.3246C30.6039 46.2344 30.8477 46.1893 31.1451 46.1893C31.3422 46.1893 31.5376 46.2177 31.7314 46.2745C31.9251 46.328 32.0922 46.4031 32.2325 46.5L32.1072 46.7957C31.9569 46.6955 31.7965 46.622 31.6261 46.5752C31.4591 46.5284 31.2971 46.505 31.1401 46.505C30.9296 46.505 30.7559 46.5334 30.6189 46.5902C30.4819 46.647 30.38 46.7238 30.3132 46.8207C30.2497 46.9143 30.218 47.0212 30.218 47.1414C30.218 47.2784 30.2564 47.3887 30.3333 47.4722C30.4134 47.5557 30.517 47.6208 30.644 47.6676C30.7742 47.7144 30.9162 47.7561 31.0699 47.7929C31.2236 47.8296 31.3756 47.8697 31.5259 47.9132C31.6796 47.9566 31.8199 48.0134 31.9468 48.0835C32.0771 48.1503 32.1807 48.2405 32.2575 48.3541C32.3377 48.4677 32.3778 48.6164 32.3778 48.8001C32.3778 48.9705 32.331 49.1292 32.2375 49.2762C32.1439 49.4198 32.0003 49.5368 31.8065 49.627C31.6161 49.7138 31.3706 49.7572 31.0699 49.7572ZM35.3976 49.7572C35.1336 49.7572 34.8881 49.7138 34.6609 49.627C34.4371 49.5368 34.2417 49.4115 34.0746 49.2511C33.9109 49.0874 33.7823 48.8987 33.6888 48.6849C33.5986 48.4677 33.5535 48.2305 33.5535 47.9733C33.5535 47.716 33.5986 47.4805 33.6888 47.2667C33.7823 47.0496 33.9109 46.8608 34.0746 46.7005C34.2417 46.5368 34.4371 46.4115 34.6609 46.3246C34.8848 46.2344 35.1303 46.1893 35.3976 46.1893C35.6615 46.1893 35.9054 46.2344 36.1292 46.3246C36.353 46.4115 36.5468 46.5351 36.7105 46.6955C36.8775 46.8558 37.0061 47.0446 37.0963 47.2617C37.1899 47.4789 37.2366 47.716 37.2366 47.9733C37.2366 48.2305 37.1899 48.4677 37.0963 48.6849C37.0061 48.902 36.8775 49.0908 36.7105 49.2511C36.5468 49.4115 36.353 49.5368 36.1292 49.627C35.9054 49.7138 35.6615 49.7572 35.3976 49.7572ZM36.5451 50.4237C36.4382 50.4237 36.3346 50.4104 36.2344 50.3836C36.1342 50.3569 36.0323 50.3135 35.9287 50.2533C35.8285 50.1965 35.725 50.1214 35.6181 50.0278C35.5112 49.9343 35.3942 49.8207 35.2673 49.6871L35.6732 49.5869C35.7767 49.7105 35.877 49.8124 35.9738 49.8925C36.0741 49.9727 36.1709 50.0312 36.2645 50.0679C36.3614 50.108 36.4566 50.1281 36.5501 50.1281C36.8107 50.1281 37.0329 50.0212 37.2166 49.8074L37.397 50.0228C37.1765 50.2901 36.8925 50.4237 36.5451 50.4237ZM35.3976 49.4265C35.608 49.4265 35.8018 49.3914 35.9789 49.3213C36.1593 49.2478 36.3146 49.1442 36.4449 49.0106C36.5785 48.877 36.6821 48.7233 36.7556 48.5496C36.8291 48.3725 36.8658 48.1804 36.8658 47.9733C36.8658 47.7628 36.8291 47.5707 36.7556 47.397C36.6821 47.2199 36.5785 47.0663 36.4449 46.936C36.3146 46.8024 36.1593 46.7005 35.9789 46.6303C35.8018 46.5568 35.608 46.5201 35.3976 46.5201C35.1871 46.5201 34.9917 46.5568 34.8113 46.6303C34.6309 46.7005 34.4739 46.8024 34.3402 46.936C34.2099 47.0663 34.1064 47.2199 34.0295 47.397C33.956 47.5707 33.9193 47.7628 33.9193 47.9733C33.9193 48.1804 33.956 48.3725 34.0295 48.5496C34.1064 48.7233 34.2099 48.877 34.3402 49.0106C34.4739 49.1442 34.6309 49.2478 34.8113 49.3213C34.9917 49.3914 35.1871 49.4265 35.3976 49.4265ZM38.7462 49.7272V46.2194H39.1171V49.4065H41.0814V49.7272H38.7462Z" fill="#BDEBEA"/>
<path d="M38.9279 22.7668C38.7088 22.1032 38.1349 21.641 37.3926 21.5301C37.0426 21.4778 36.6418 21.5001 36.1675 21.5979C35.3407 21.7684 34.7274 21.8334 34.2797 21.846C35.9694 18.9933 37.3432 15.7402 38.1342 12.678C39.4131 7.7265 38.7297 5.47078 37.931 4.45047C35.8175 1.74982 32.7339 0.299007 29.0138 0.254615C27.0292 0.230349 25.2871 0.622171 24.3783 0.903941C23.5321 0.754634 22.6223 0.671274 21.6676 0.655858C19.8781 0.62731 18.297 1.01742 16.9459 1.81919C16.198 1.56626 14.9975 1.20969 13.6112 0.982163C10.3507 0.446886 7.7229 0.863974 5.80076 2.22186C3.47323 3.86595 2.39426 6.72247 2.59381 10.7121C2.65718 11.9787 3.36575 15.8327 4.48141 19.4877C5.1226 21.5886 5.80632 23.3332 6.5136 24.6735C7.51664 26.5741 8.5899 27.6933 9.79478 28.0953C10.4701 28.3202 11.6971 28.4778 12.9876 27.403C13.1512 27.6011 13.3694 27.7979 13.659 27.9808C14.0269 28.2127 14.4767 28.4023 14.9259 28.5146C16.5447 28.9193 18.061 28.8181 19.3547 28.2509C19.3627 28.481 19.3688 28.7008 19.3739 28.8906C19.3825 29.1985 19.3911 29.5004 19.4023 29.7827C19.479 31.6918 19.6089 33.1761 19.9937 34.2147C20.0148 34.2718 20.0432 34.3589 20.0732 34.4512C20.2652 35.039 20.5862 36.0231 21.403 36.7937C22.2487 37.5921 23.2718 37.8369 24.2087 37.8369C24.6786 37.8369 25.1269 37.7752 25.5202 37.691C26.9219 37.3905 28.5139 36.9329 29.6655 35.2931C30.7543 33.7429 31.2836 31.4081 31.3794 27.7293C31.3918 27.6252 31.4032 27.5259 31.4142 27.4312L31.4371 27.2368L31.6936 27.2594L31.7597 27.2638C33.1874 27.3289 34.9331 27.0261 36.0052 26.5281C36.8524 26.135 39.5671 24.7018 38.9279 22.7668Z" fill="black"/>
<path d="M36.4865 23.143C32.2414 24.0188 31.9495 22.5815 31.9495 22.5815C36.4315 15.9308 38.3053 7.4887 36.6885 5.42254C32.2772 -0.213568 24.6413 2.45197 24.5139 2.52105L24.4729 2.52848C23.6341 2.35433 22.6956 2.2507 21.6406 2.23343C19.7199 2.20203 18.2628 2.73702 17.1572 3.57548C17.1572 3.57548 3.53544 -2.03622 4.16907 10.6331C4.30381 13.3284 8.03219 31.0269 12.4791 25.6811C14.1045 23.7263 15.6751 22.0735 15.6751 22.0735C16.455 22.5916 17.3888 22.856 18.3677 22.7611L18.4438 22.6965C18.4201 22.9392 18.431 23.1766 18.4742 23.4576C17.3286 24.7376 17.6653 24.9623 15.3752 25.4337C13.0578 25.9114 14.4191 26.7615 15.308 26.9839C16.3855 27.2533 18.8783 27.6349 20.5627 25.277L20.4956 25.5461C20.9443 25.9056 21.2595 27.8846 21.2067 29.6787C21.1539 31.4727 21.1186 32.7044 21.4722 33.6664C21.8261 34.6285 22.1785 36.7932 25.1892 36.1481C27.7047 35.609 29.0083 34.212 29.1897 31.8816C29.3184 30.225 29.6097 30.4699 29.628 28.9887L29.8616 28.2875C30.131 26.0418 29.9044 25.3173 31.4542 25.6543L31.831 25.6874C32.9715 25.7392 34.4646 25.5038 35.3409 25.0966C37.2276 24.221 38.3467 22.7589 36.4862 23.143H36.4865Z" fill="#336791"/>
<path d="M17.9547 11.8384C17.5721 11.7851 17.2257 11.8344 17.0504 11.9671C16.9519 12.0418 16.9214 12.1283 16.9131 12.1878C16.8911 12.3455 17.0016 12.5199 17.0696 12.6099C17.2617 12.8645 17.5423 13.0395 17.8201 13.0781C17.8603 13.0838 17.9004 13.0863 17.9403 13.0863C18.4035 13.0863 18.8247 12.7256 18.8618 12.4594C18.9082 12.126 18.4242 11.9037 17.9547 11.8385" fill="white"/>
<path d="M30.6273 11.8491C30.5907 11.5877 30.1257 11.5132 29.6843 11.5746C29.2435 11.6359 28.8162 11.8349 28.8519 12.0968C28.8804 12.3005 29.2483 12.6483 29.6836 12.6483C29.7204 12.6483 29.7576 12.6458 29.795 12.6405C30.0856 12.6003 30.2988 12.4157 30.4002 12.3094C30.5543 12.1472 30.6437 11.9665 30.6273 11.8491Z" fill="white"/>
<path d="M37.8992 23.0436C37.7373 22.5542 37.2163 22.3967 36.3508 22.5754C33.7807 23.1059 32.8603 22.7384 32.5581 22.5159C34.5558 19.4727 36.1992 15.794 37.0857 12.3618C37.5057 10.736 37.7376 9.22606 37.7566 7.99536C37.7776 6.6446 37.5475 5.65199 37.073 5.04563C35.16 2.6012 32.3523 1.28998 28.9537 1.25401C26.6171 1.22775 24.643 1.82569 24.2604 1.99384C23.4544 1.79343 22.5759 1.67039 21.6194 1.65469C19.8654 1.62628 18.3492 2.04622 17.0939 2.90224C16.5487 2.69926 15.1395 2.21551 13.4162 1.93788C10.437 1.45827 8.06946 1.82169 6.37998 3.01857C4.36406 4.44683 3.43339 6.99988 3.61368 10.6066C3.67434 11.8201 4.36578 15.553 5.45688 19.128C6.89314 23.8333 8.45443 26.4969 10.0971 27.0449C10.2894 27.109 10.511 27.1538 10.7555 27.1538C11.3548 27.1538 12.0895 26.8838 12.8538 25.9648C13.7861 24.8464 14.7506 23.7551 15.7459 22.6923C16.3917 23.0389 17.1011 23.2325 17.8266 23.2519C17.828 23.2709 17.8299 23.2898 17.8316 23.3087C17.7067 23.4576 17.5844 23.6087 17.4648 23.7619C16.962 24.4001 16.8574 24.533 15.2392 24.8661C14.7788 24.9612 13.5563 25.2131 13.5383 26.0701C13.5189 27.0065 14.9835 27.3998 15.1504 27.4415C15.7319 27.587 16.2922 27.6588 16.8264 27.6588C18.1258 27.6588 19.2693 27.2318 20.1831 26.4054C20.155 29.7436 20.2942 33.0329 20.695 34.0351C21.0233 34.8555 21.8252 36.8606 24.3583 36.8605C24.73 36.8605 25.1391 36.8172 25.5891 36.7207C28.2328 36.154 29.3809 34.9856 29.8249 32.4095C30.0626 31.0328 30.4704 27.7453 30.6623 25.9819C31.0671 26.1083 31.5882 26.1661 32.1516 26.1659C33.3267 26.1659 34.6825 25.9163 35.5329 25.5216C36.4881 25.078 38.2118 23.9894 37.8992 23.0436ZM31.6035 11.1276C31.5948 11.6482 31.5231 12.1208 31.4472 12.6141C31.3654 13.1447 31.2809 13.6933 31.2596 14.3591C31.2387 15.0072 31.3196 15.6809 31.3978 16.3325C31.556 17.6486 31.7183 19.0035 31.0901 20.3404C30.9857 20.1555 30.8928 19.9644 30.8117 19.7682C30.7336 19.5789 30.5641 19.2748 30.3293 18.854C29.4159 17.216 27.2769 13.38 28.3719 11.8147C28.698 11.3488 29.5258 10.8697 31.6035 11.1276ZM29.085 2.30815C32.1302 2.37538 34.5391 3.51459 36.2446 5.69395C37.5526 7.36559 36.1122 14.9718 31.9424 21.5337C31.9004 21.4804 31.8583 21.4272 31.8159 21.3743L31.7631 21.3083C32.8406 19.5288 32.6299 17.7681 32.4424 16.2071C32.3653 15.5664 32.2925 14.9614 32.3111 14.393C32.3302 13.7906 32.4098 13.2739 32.4869 12.7743C32.5816 12.1587 32.6779 11.5216 32.6514 10.7707C32.6712 10.6919 32.6792 10.5988 32.6688 10.4883C32.601 9.76819 31.7788 7.61295 30.103 5.66226C29.1863 4.59528 27.8496 3.40126 26.0243 2.59592C26.8094 2.43319 27.883 2.28146 29.085 2.30815ZM12.0449 25.2922C11.2028 26.3048 10.6212 26.1107 10.43 26.047C9.18383 25.6314 7.73787 22.9975 6.46306 18.8209C5.35996 15.207 4.71535 11.573 4.66425 10.554C4.50323 7.33118 5.28445 5.08516 6.98635 3.87815C9.75608 1.91404 14.3098 3.08965 16.1396 3.68588C16.1133 3.71186 16.0859 3.73613 16.0599 3.76253C13.0572 6.79491 13.1285 11.9758 13.1359 12.2926C13.1356 12.4147 13.1459 12.5877 13.1599 12.8257C13.2115 13.6971 13.3077 15.3189 13.0508 17.1556C12.8122 18.8623 13.3383 20.5328 14.4941 21.7388C14.6127 21.8624 14.7373 21.9799 14.8676 22.0911C14.3532 22.6421 13.2351 23.8605 12.0449 25.2922ZM15.2536 21.011C14.3221 20.0389 13.899 18.6869 14.0927 17.3012C14.3639 15.361 14.2638 13.6713 14.21 12.7635C14.2024 12.6364 14.1957 12.5251 14.1919 12.4373C14.6305 12.0483 16.6633 10.9592 18.113 11.2914C18.7744 11.4428 19.1775 11.8933 19.3451 12.6681C20.2124 16.6795 19.4599 18.3515 18.8552 19.6951C18.7306 19.9718 18.6128 20.2335 18.5123 20.5041L18.4344 20.7134C18.2371 21.2424 18.0536 21.7343 17.9398 22.2013C16.9495 22.1985 15.9861 21.7754 15.2536 21.0109V21.011ZM15.4056 26.4209C15.1164 26.3486 14.8563 26.2232 14.7037 26.1191C14.8312 26.0592 15.058 25.9775 15.4514 25.8964C17.3552 25.5046 17.6492 25.228 18.2912 24.4128C18.4384 24.2258 18.6053 24.014 18.8364 23.7559L18.8367 23.7556C19.1808 23.3702 19.3382 23.4356 19.6237 23.5541C19.8551 23.6497 20.0805 23.9397 20.1718 24.2589C20.2151 24.4096 20.2636 24.6957 20.1048 24.9184C18.7636 26.7963 16.8092 26.7721 15.4056 26.4209ZM25.3687 35.6921C23.0398 36.1911 22.2152 35.0028 21.6718 33.6444C21.321 32.7674 21.1486 28.8126 21.2709 24.4452C21.2725 24.3871 21.2642 24.331 21.2483 24.2782C21.2339 24.1739 21.2122 24.0708 21.1832 23.9696C21.0013 23.3341 20.5581 22.8025 20.0264 22.5821C19.8151 22.4946 19.4275 22.3341 18.9615 22.4532C19.0609 22.0439 19.2332 21.5815 19.42 21.0809L19.4984 20.8704C19.5866 20.633 19.6974 20.3871 19.8144 20.1267C20.4472 18.721 21.3138 16.7956 20.3733 12.4459C20.021 10.8166 18.8445 10.021 17.0611 10.2058C15.992 10.3165 15.0138 10.7478 14.5259 10.9952C14.421 11.0483 14.3251 11.0997 14.2354 11.1496C14.3716 9.50812 14.886 6.44034 16.8105 4.49936C18.0222 3.2775 19.6359 2.67399 21.602 2.70654C25.4759 2.76992 27.9602 4.758 29.3622 6.41479C30.5703 7.84234 31.2245 9.28045 31.4856 10.0561C29.5222 9.85641 28.1869 10.2439 27.51 11.2117C26.0373 13.3169 28.3156 17.4027 29.4106 19.3663C29.6114 19.7262 29.7847 20.0372 29.8392 20.1694C30.1958 21.0335 30.6574 21.6105 30.9944 22.0316C31.0978 22.1606 31.198 22.2858 31.2742 22.3951C30.6795 22.5666 29.6114 22.9627 29.7088 24.9426C29.6303 25.9361 29.072 30.5874 28.7884 32.2308C28.414 34.4019 27.615 35.2105 25.3687 35.6923V35.6921ZM35.0899 24.5675C34.4819 24.8497 33.4643 25.0614 32.4976 25.1069C31.4299 25.1569 30.8864 24.9873 30.7585 24.883C30.6985 23.6491 31.1577 23.5202 31.6437 23.3838C31.7201 23.3624 31.7946 23.3414 31.8666 23.3163C31.9112 23.3526 31.9602 23.3888 32.0139 23.4242C32.872 23.9906 34.4026 24.0517 36.5636 23.6056L36.5873 23.6009C36.2958 23.8734 35.7971 24.2391 35.0899 24.5675Z" fill="white"/>
</svg>
