<svg width="48" height="48" viewBox="0 0 48 48" fill="none" xmlns="http://www.w3.org/2000/svg">
<g clip-path="url(#clip0_2_298)">
<path d="M23.9654 20.2097C25.8187 20.2097 27.3211 18.7073 27.3211 16.854C27.3211 15.0007 25.8187 13.4984 23.9654 13.4984C22.1121 13.4984 20.6098 15.0007 20.6098 16.854C20.6098 18.7073 22.1121 20.2097 23.9654 20.2097Z" fill="#F5DE19"/>
<path d="M23.9655 24.5477C19.9322 24.6453 15.909 24.1016 12.0462 22.937C10.2619 22.3714 8.59761 21.4803 7.13759 20.3089C6.58046 19.9087 6.11649 19.3927 5.77753 18.7963C5.43857 18.2 5.23264 17.5373 5.17386 16.8539C5.17386 14.6351 7.61141 12.4607 11.6946 11.0379C15.6606 9.77713 19.8044 9.16612 23.9655 9.22849C28.0711 9.17112 32.1594 9.77109 36.0754 11.0056C37.7939 11.5535 39.4017 12.4015 40.8243 13.5103C41.3719 13.8918 41.8289 14.3891 42.163 14.9669C42.497 15.5447 42.6999 16.1889 42.7572 16.8539C42.7572 19.1599 40.0324 21.4968 35.6432 22.9491C31.8552 24.0757 27.9169 24.6149 23.9655 24.5477ZM23.9655 10.8338C19.9845 10.7806 16.0204 11.3615 12.2221 12.5546C8.46374 13.866 6.7792 15.6593 6.7792 16.8498C6.7792 18.0955 8.58992 20.0538 12.5657 21.4135C16.261 22.5221 20.1087 23.0381 23.9655 22.9424C27.7459 23.01 31.5143 22.4985 35.1399 21.4256C39.2673 20.0579 41.1465 18.0968 41.1465 16.8539C41.0788 16.4273 40.9233 16.0195 40.69 15.6561C40.4566 15.2927 40.1505 14.9816 39.7908 14.7425C38.518 13.7588 37.0817 13.0073 35.5479 12.5224C31.8017 11.3462 27.8916 10.7762 23.9655 10.8338Z" fill="#F5DE19"/>
<path d="M16.3413 33.5905C15.7151 33.6048 15.0963 33.4529 14.548 33.1502C12.6259 32.0415 11.9601 28.8442 12.7668 24.596C13.6563 20.5304 15.1974 16.6354 17.3305 13.0619C19.3315 9.47687 21.8931 6.23505 24.9183 3.45937C26.2514 2.24422 27.7893 1.27489 29.4605 0.596322C30.065 0.313023 30.7245 0.166168 31.3921 0.166168C32.0597 0.166168 32.7191 0.313023 33.3236 0.596322C35.3222 1.74798 35.9839 5.27545 35.0511 9.8029C34.1342 13.6479 32.6331 17.3295 30.6001 20.7195C28.6696 24.2622 26.1886 27.4758 23.2499 30.2402C21.8684 31.503 20.2652 32.4991 18.5211 33.1784C17.8229 33.4375 17.0859 33.5768 16.3413 33.5905ZM18.7211 13.8592C16.6864 17.2811 15.2093 21.005 14.3453 24.8913C13.6031 28.804 14.3158 31.1569 15.352 31.7556C16.4258 32.3771 19.0325 31.7878 22.1976 29.0227C25.0029 26.3744 27.371 23.2983 29.2136 19.9088C31.1611 16.6679 32.601 13.148 33.4833 9.47136C34.3611 5.20968 33.6028 2.60032 32.5263 1.98019C32.1228 1.8256 31.6917 1.7564 31.2601 1.77696C30.8285 1.79752 30.4059 1.9074 30.0189 2.09965C28.5313 2.71353 27.1636 3.58504 25.9787 4.67411C23.0884 7.33285 20.6415 10.4364 18.7305 13.8673L18.7211 13.8592Z" fill="#F5DE19"/>
<path d="M31.5839 33.6079C29.7652 33.6079 27.4551 32.5073 25.0498 30.4388C21.9716 27.6379 19.3666 24.3576 17.3358 20.7249C15.2295 17.2006 13.7005 13.362 12.807 9.35459C12.4195 7.59152 12.3477 5.7737 12.595 3.98555C12.6521 3.32221 12.8541 2.67949 13.1867 2.10271C13.5192 1.52592 13.9743 1.02912 14.5198 0.647341C16.5157 -0.508346 19.9022 0.679556 23.3586 3.74797C26.2318 6.46227 28.6718 9.60117 30.5933 13.0552C32.6984 16.4972 34.2434 20.2518 35.1705 24.1785C35.5746 26.0063 35.637 27.8931 35.3544 29.7436C35.2871 30.426 35.0731 31.0858 34.7269 31.6777C34.3808 32.2697 33.9108 32.7798 33.349 33.173C32.8096 33.472 32.2005 33.6221 31.5839 33.6079ZM18.7251 19.9169C20.6733 23.3885 23.1616 26.528 26.0968 29.2174C29.1155 31.8147 31.5101 32.373 32.5396 31.7677C33.6134 31.1435 34.4054 28.5959 33.5893 24.4738C32.6952 20.7248 31.2133 17.1409 29.1987 13.8552C27.365 10.5494 25.036 7.5437 22.2928 4.94258C19.0392 2.05403 16.4003 1.4084 15.3251 2.03121C14.99 2.30353 14.715 2.64238 14.5175 3.02635C14.32 3.41032 14.2042 3.83108 14.1775 4.26205C13.9641 5.85678 14.0336 7.47664 14.3829 9.04722C15.2423 12.8796 16.7086 16.5499 18.7264 19.9195L18.7251 19.9169Z" fill="#F5DE19"/>
</g>
<path d="M0.0820013 45.3771V41.8693H1.39491C1.69224 41.8693 1.94781 41.9177 2.16161 42.0146C2.37542 42.1082 2.53912 42.2451 2.6527 42.4255C2.76963 42.6026 2.82809 42.8181 2.82809 43.072C2.82809 43.3192 2.76963 43.533 2.6527 43.7134C2.53912 43.8904 2.37542 44.0274 2.16161 44.1243C1.94781 44.2178 1.69224 44.2646 1.39491 44.2646H0.287457L0.452824 44.0942V45.3771H0.0820013ZM2.47731 45.3771L1.57531 44.1043H1.9762L2.88321 45.3771H2.47731ZM0.452824 44.1243L0.287457 43.9489H1.38489C1.73567 43.9489 2.00126 43.8721 2.18166 43.7184C2.3654 43.5647 2.45727 43.3492 2.45727 43.072C2.45727 42.7913 2.3654 42.5742 2.18166 42.4205C2.00126 42.2668 1.73567 42.19 1.38489 42.19H0.287457L0.452824 42.0146V44.1243ZM4.71245 43.4378H6.56656V43.7535H4.71245V43.4378ZM4.75254 45.0564H6.86222V45.3771H4.38172V41.8693H6.78705V42.19H4.75254V45.0564ZM7.85103 45.3771L9.45459 41.8693H9.8204L11.424 45.3771H11.0331L9.55982 42.0848H9.71016L8.23689 45.3771H7.85103ZM8.48243 44.44L8.59268 44.1393H10.6322L10.7424 44.44H8.48243ZM14.1571 45.4071C13.8932 45.4071 13.6493 45.3637 13.4254 45.2769C13.2016 45.1867 13.0079 45.0614 12.8442 44.901C12.6805 44.7407 12.5518 44.5519 12.4583 44.3348C12.3681 44.1176 12.323 43.8804 12.323 43.6232C12.323 43.3659 12.3681 43.1288 12.4583 42.9116C12.5518 42.6945 12.6805 42.5057 12.8442 42.3454C13.0112 42.185 13.2066 42.0614 13.4305 41.9745C13.6543 41.8843 13.8982 41.8392 14.1621 41.8392C14.416 41.8392 14.6548 41.8827 14.8787 41.9695C15.1025 42.053 15.2913 42.18 15.4449 42.3504L15.2094 42.5859C15.0658 42.4389 14.9071 42.3337 14.7333 42.2702C14.5596 42.2034 14.3725 42.17 14.1721 42.17C13.9616 42.17 13.7662 42.2067 13.5858 42.2802C13.4054 42.3504 13.2484 42.4523 13.1148 42.5859C12.9811 42.7162 12.8759 42.8698 12.7991 43.0469C12.7256 43.2206 12.6888 43.4127 12.6888 43.6232C12.6888 43.8337 12.7256 44.0274 12.7991 44.2045C12.8759 44.3782 12.9811 44.5319 13.1148 44.6655C13.2484 44.7958 13.4054 44.8977 13.5858 44.9712C13.7662 45.0413 13.9616 45.0764 14.1721 45.0764C14.3725 45.0764 14.5596 45.043 14.7333 44.9762C14.9071 44.9094 15.0658 44.8025 15.2094 44.6555L15.4449 44.891C15.2913 45.0614 15.1025 45.19 14.8787 45.2769C14.6548 45.3637 14.4143 45.4071 14.1571 45.4071ZM17.5513 45.3771V42.19H16.3186V41.8693H19.1549V42.19H17.9221V45.3771H17.5513ZM22.4156 45.3771V41.8693H22.7212L25.1416 44.9161H24.9813V41.8693H25.3471V45.3771H25.0414L22.626 42.3303H22.7864V45.3771H22.4156ZM26.6092 45.3771L28.2127 41.8693H28.5785L30.1821 45.3771H29.7912L28.3179 42.0848H28.4683L26.995 45.3771H26.6092ZM27.2406 44.44L27.3508 44.1393H29.3903L29.5006 44.44H27.2406ZM32.9152 45.4071C32.6513 45.4071 32.4074 45.3637 32.1836 45.2769C31.9597 45.1867 31.766 45.0614 31.6023 44.901C31.4386 44.7407 31.31 44.5519 31.2164 44.3348C31.1262 44.1176 31.0811 43.8804 31.0811 43.6232C31.0811 43.3659 31.1262 43.1288 31.2164 42.9116C31.31 42.6945 31.4386 42.5057 31.6023 42.3454C31.7693 42.185 31.9647 42.0614 32.1886 41.9745C32.4124 41.8843 32.6563 41.8392 32.9202 41.8392C33.1741 41.8392 33.413 41.8827 33.6368 41.9695C33.8606 42.053 34.0494 42.18 34.203 42.3504L33.9675 42.5859C33.8239 42.4389 33.6652 42.3337 33.4915 42.2702C33.3177 42.2034 33.1307 42.17 32.9302 42.17C32.7198 42.17 32.5243 42.2067 32.3439 42.2802C32.1635 42.3504 32.0065 42.4523 31.8729 42.5859C31.7392 42.7162 31.634 42.8698 31.5572 43.0469C31.4837 43.2206 31.4469 43.4127 31.4469 43.6232C31.4469 43.8337 31.4837 44.0274 31.5572 44.2045C31.634 44.3782 31.7392 44.5319 31.8729 44.6655C32.0065 44.7958 32.1635 44.8977 32.3439 44.9712C32.5243 45.0413 32.7198 45.0764 32.9302 45.0764C33.1307 45.0764 33.3177 45.043 33.4915 44.9762C33.6652 44.9094 33.8239 44.8025 33.9675 44.6555L34.203 44.891C34.0494 45.0614 33.8606 45.19 33.6368 45.2769C33.413 45.3637 33.1724 45.4071 32.9152 45.4071ZM36.3094 45.3771V42.19H35.0767V41.8693H37.913V42.19H36.6802V45.3771H36.3094ZM39.1838 45.3771V41.8693H39.5546V45.3771H39.1838ZM42.3324 45.3771L40.7789 41.8693H41.1798L42.6331 45.1716H42.4126L43.8758 41.8693H44.2516L42.6982 45.3771H42.3324ZM45.7699 43.4378H47.624V43.7535H45.7699V43.4378ZM45.81 45.0564H47.9196V45.3771H45.4391V41.8693H47.8445V42.19H45.81V45.0564Z" fill="#BDEBEA"/>
<defs>
<clipPath id="clip0_2_298">
<rect width="37.5833" height="33.1986" fill="white" transform="translate(5.17288 0.288177)"/>
</clipPath>
</defs>
</svg>
