<svg width="38" height="52" viewBox="0 0 38 52" fill="none" xmlns="http://www.w3.org/2000/svg">
<path d="M4.96663 49.5694V46.0616H6.27954C6.57686 46.0616 6.83243 46.1101 7.04624 46.207C7.26004 46.3005 7.42374 46.4375 7.53733 46.6179C7.65425 46.7949 7.71271 47.0104 7.71271 47.2643C7.71271 47.5115 7.65425 47.7253 7.53733 47.9057C7.42374 48.0828 7.26004 48.2198 7.04624 48.3166C6.83243 48.4102 6.57686 48.457 6.27954 48.457H5.17208L5.33745 48.2866V49.5694H4.96663ZM7.36194 49.5694L6.45994 48.2966H6.86083L7.76784 49.5694H7.36194ZM5.33745 48.3166L5.17208 48.1413H6.26951C6.62029 48.1413 6.88588 48.0644 7.06628 47.9107C7.25002 47.7571 7.34189 47.5416 7.34189 47.2643C7.34189 46.9837 7.25002 46.7665 7.06628 46.6129C6.88588 46.4592 6.62029 46.3824 6.26951 46.3824H5.17208L5.33745 46.207V48.3166ZM9.59707 47.6301H11.4512V47.9458H9.59707V47.6301ZM9.63716 49.2487H11.7468V49.5694H9.26634V46.0616H11.6717V46.3824H9.63716V49.2487ZM12.7357 49.5694L14.3392 46.0616H14.705L16.3086 49.5694H15.9177L14.4444 46.2771H14.5948L13.1215 49.5694H12.7357ZM13.3671 48.6323L13.4773 48.3317H15.5168L15.6271 48.6323H13.3671ZM19.0417 49.5995C18.7778 49.5995 18.5339 49.5561 18.3101 49.4692C18.0862 49.379 17.8925 49.2537 17.7288 49.0934C17.5651 48.933 17.4365 48.7443 17.3429 48.5271C17.2527 48.31 17.2076 48.0728 17.2076 47.8155C17.2076 47.5583 17.2527 47.3211 17.3429 47.104C17.4365 46.8868 17.5651 46.6981 17.7288 46.5377C17.8958 46.3773 18.0913 46.2537 18.3151 46.1669C18.5389 46.0767 18.7828 46.0316 19.0467 46.0316C19.3006 46.0316 19.5395 46.075 19.7633 46.1619C19.9871 46.2454 20.1759 46.3723 20.3296 46.5427L20.094 46.7782C19.9504 46.6312 19.7917 46.526 19.618 46.4625C19.4443 46.3957 19.2572 46.3623 19.0567 46.3623C18.8463 46.3623 18.6508 46.3991 18.4704 46.4726C18.29 46.5427 18.133 46.6446 17.9994 46.7782C17.8658 46.9085 17.7605 47.0622 17.6837 47.2393C17.6102 47.413 17.5734 47.6051 17.5734 47.8155C17.5734 48.026 17.6102 48.2198 17.6837 48.3968C17.7605 48.5705 17.8658 48.7242 17.9994 48.8578C18.133 48.9881 18.29 49.09 18.4704 49.1635C18.6508 49.2337 18.8463 49.2688 19.0567 49.2688C19.2572 49.2688 19.4443 49.2354 19.618 49.1685C19.7917 49.1017 19.9504 48.9948 20.094 48.8478L20.3296 49.0833C20.1759 49.2537 19.9871 49.3823 19.7633 49.4692C19.5395 49.5561 19.2989 49.5995 19.0417 49.5995ZM22.4359 49.5694V46.3824H21.2032V46.0616H24.0395V46.3824H22.8067V49.5694H22.4359ZM27.676 49.5995C27.4789 49.5995 27.2935 49.5561 27.1198 49.4692C26.9494 49.3823 26.8124 49.2587 26.7089 49.0984L26.9244 48.8478C27.0212 48.9881 27.1332 49.095 27.2601 49.1685C27.3871 49.242 27.5274 49.2788 27.681 49.2788C28.1153 49.2788 28.3325 49.0215 28.3325 48.5071V46.3824H27.0496V46.0616H28.6983V48.492C28.6983 48.8629 28.6114 49.1401 28.4377 49.3239C28.2673 49.5076 28.0134 49.5995 27.676 49.5995ZM31.4562 49.5995C31.1956 49.5995 30.9451 49.5577 30.7045 49.4742C30.4673 49.3874 30.2836 49.2771 30.1533 49.1435L30.2986 48.8578C30.4222 48.9781 30.5876 49.08 30.7947 49.1635C31.0052 49.2437 31.2257 49.2838 31.4562 49.2838C31.6767 49.2838 31.8554 49.2571 31.9924 49.2036C32.1327 49.1468 32.2346 49.0717 32.2981 48.9781C32.3649 48.8846 32.3983 48.781 32.3983 48.6674C32.3983 48.5305 32.3582 48.4202 32.278 48.3367C32.2012 48.2532 32.0993 48.188 31.9723 48.1413C31.8454 48.0911 31.7051 48.0477 31.5514 48.011C31.3977 47.9742 31.2441 47.9358 31.0904 47.8957C30.9367 47.8523 30.7947 47.7955 30.6644 47.7253C30.5375 47.6552 30.4339 47.5633 30.3537 47.4497C30.2769 47.3328 30.2385 47.1808 30.2385 46.9937C30.2385 46.82 30.2836 46.6613 30.3738 46.5177C30.4673 46.3707 30.6093 46.2537 30.7997 46.1669C30.9902 46.0767 31.234 46.0316 31.5314 46.0316C31.7285 46.0316 31.9239 46.06 32.1177 46.1168C32.3114 46.1702 32.4785 46.2454 32.6188 46.3423L32.4935 46.6379C32.3432 46.5377 32.1828 46.4642 32.0124 46.4174C31.8454 46.3707 31.6834 46.3473 31.5263 46.3473C31.3159 46.3473 31.1422 46.3757 31.0052 46.4325C30.8682 46.4893 30.7663 46.5661 30.6995 46.663C30.636 46.7565 30.6043 46.8634 30.6043 46.9837C30.6043 47.1207 30.6427 47.2309 30.7196 47.3144C30.7997 47.3979 30.9033 47.4631 31.0302 47.5099C31.1605 47.5566 31.3025 47.5984 31.4562 47.6351C31.6099 47.6719 31.7619 47.712 31.9122 47.7554C32.0659 47.7988 32.2062 47.8556 32.3331 47.9258C32.4634 47.9926 32.567 48.0828 32.6438 48.1964C32.724 48.31 32.7641 48.4586 32.7641 48.6424C32.7641 48.8127 32.7173 48.9714 32.6238 49.1184C32.5302 49.2621 32.3866 49.379 32.1928 49.4692C32.0024 49.5561 31.7569 49.5995 31.4562 49.5995Z" fill="#BDEBEA"/>
<path d="M0.00592041 18.824C0.00592041 21.7917 2.77744 24.5622 7.14696 26.1238C6.27441 30.7169 6.99058 34.4188 9.38269 35.8614C11.8415 37.344 15.5046 36.3177 18.9813 33.14C22.3704 36.1894 25.7956 37.3895 28.1855 35.9429C30.6419 34.456 31.3891 30.5029 30.4924 25.7665C35.0435 24.1931 37.5893 21.8308 37.5893 18.824C37.5893 15.9251 34.8126 13.4171 30.502 11.8655C31.4673 6.93335 30.6494 3.32119 28.1583 1.81911C25.7565 0.371011 22.2916 1.63318 18.8527 4.76244C15.2751 1.44098 11.8443 0.42689 9.35564 1.93335C6.95627 3.38557 6.27158 7.15483 7.14696 11.8329C2.92498 13.3721 0.00592041 15.9367 0.00592041 18.824Z" fill="white"/>
<path d="M29.5886 13.4063C29.2424 13.2817 28.8836 13.1638 28.5142 13.0523C28.5749 12.7932 28.6306 12.5374 28.6802 12.286C29.4935 8.15789 28.9617 4.83225 27.1458 3.7373C25.4046 2.6874 22.5569 3.78209 19.681 6.39912C19.4044 6.65077 19.1271 6.91721 18.8499 7.19644C18.6651 7.01169 18.4807 6.83316 18.2968 6.66239C15.2827 3.86409 12.2615 2.68485 10.4474 3.78296C8.70782 4.83591 8.19266 7.96233 8.92478 11.8746C8.99548 12.2525 9.07812 12.6384 9.17158 13.0307C8.744 13.1576 8.33121 13.2929 7.93624 13.4369C4.40252 14.7251 2.14572 16.744 2.14572 18.8381C2.14572 21.001 4.56839 23.1704 8.24904 24.4858C8.5395 24.5896 8.8409 24.6877 9.1515 24.7809C9.05068 25.2053 8.96299 25.6211 8.88937 26.0267C8.19129 29.871 8.73645 32.9236 10.4714 33.9699C12.2634 35.0504 15.2709 33.9398 18.1995 31.2631C18.4309 31.0515 18.6632 30.8272 18.896 30.592C19.1976 30.8957 19.4987 31.1831 19.7983 31.4527C22.6349 34.0051 25.4366 35.0357 27.1699 33.9865C28.9602 32.9029 29.542 29.6237 28.7866 25.634C28.7289 25.3293 28.6618 25.018 28.5864 24.7012C28.7976 24.6359 29.005 24.5685 29.2071 24.4985C33.0335 23.1729 35.5231 21.0299 35.5231 18.8381C35.5231 16.7364 33.1935 14.7039 29.5886 13.4063Z" fill="#53C1DE"/>
<path d="M28.758 23.0834C28.5755 23.1466 28.3882 23.2077 28.1974 23.2669C27.775 21.8686 27.2049 20.3817 26.5072 18.8455C27.173 17.3459 27.721 15.8781 28.1316 14.4889C28.4731 14.5922 28.8045 14.7011 29.1238 14.8161C32.2125 15.9279 34.0965 17.5717 34.0965 18.8383C34.0965 20.1874 32.0618 21.9388 28.758 23.0834ZM27.3871 25.9237C27.7212 27.6879 27.7689 29.2829 27.5476 30.5298C27.3488 31.6502 26.949 32.3972 26.4547 32.6964C25.4029 33.333 23.1534 32.5055 20.7275 30.3227C20.4494 30.0724 20.1693 29.8053 19.8883 29.5225C20.8287 28.447 21.7687 27.1967 22.6861 25.8081C24.2996 25.6584 25.824 25.4136 27.2065 25.0795C27.2746 25.3667 27.335 25.6483 27.3871 25.9237ZM13.5241 32.5864C12.4964 32.9658 11.6779 32.9767 11.1831 32.6784C10.1303 32.0435 9.69263 29.5926 10.2897 26.3049C10.358 25.9284 10.4394 25.5416 10.5332 25.1463C11.9005 25.4624 13.4138 25.6899 15.0312 25.827C15.9548 27.1857 16.9218 28.4347 17.8964 29.5283C17.6835 29.7432 17.4714 29.9478 17.2605 30.1406C15.9655 31.3242 14.6678 32.164 13.5241 32.5864ZM8.70949 23.0751C7.08198 22.4935 5.73792 21.7376 4.81663 20.9127C3.98879 20.1714 3.57083 19.4354 3.57083 18.8383C3.57083 17.5675 5.38282 15.9465 8.40489 14.8448C8.77157 14.7111 9.15543 14.5852 9.55378 14.4668C9.97144 15.8874 10.5193 17.3726 11.1805 18.8745C10.5108 20.3987 9.95511 21.9076 9.53335 23.3449C9.24936 23.2595 8.97423 23.1697 8.70949 23.0751ZM10.3234 11.5884C9.69613 8.23646 10.1127 5.7079 11.161 5.07339C12.2777 4.39746 14.7469 5.3612 17.3493 7.77739C17.5157 7.93182 17.6827 8.09346 17.8502 8.26069C16.8804 9.34948 15.9221 10.589 15.0068 11.9398C13.437 12.0919 11.9344 12.3363 10.5528 12.6636C10.466 12.2982 10.389 11.9393 10.3234 11.5884ZM24.7209 15.3056C24.3906 14.7091 24.0516 14.1268 23.7059 13.5603C24.7709 13.701 25.7912 13.8879 26.7494 14.1166C26.4617 15.0806 26.1031 16.0885 25.6811 17.1217C25.3783 16.5207 25.0581 15.9147 24.7209 15.3056ZM18.8496 9.32619C19.5073 10.0712 20.1659 10.903 20.8138 11.8055C20.161 11.7733 19.5001 11.7565 18.8337 11.7565C18.1736 11.7565 17.5176 11.7729 16.8689 11.8046C17.5173 10.9105 18.1817 10.0798 18.8496 9.32619ZM12.9408 15.3159C12.6108 15.9141 12.2966 16.5168 11.9986 17.1206C11.5833 16.091 11.2281 15.0785 10.9379 14.1008C11.8902 13.878 12.9058 13.6958 13.9639 13.5577C13.6134 14.1294 13.2716 14.716 12.9408 15.3158V15.3159ZM13.9944 24.2252C12.9011 24.0977 11.8703 23.9248 10.9183 23.7082C11.2131 22.713 11.5761 21.6789 12.0002 20.6271C12.2989 21.2305 12.6145 21.8334 12.9464 22.4329H12.9465C13.2846 23.0436 13.6349 23.6418 13.9944 24.2252ZM18.8891 28.4554C18.2133 27.693 17.5392 26.8497 16.8809 25.9425C17.5199 25.9687 18.1715 25.9822 18.8337 25.9822C19.514 25.9822 20.1866 25.9661 20.8485 25.9353C20.1986 26.8588 19.5423 27.7035 18.8891 28.4554ZM25.6947 20.5735C26.1408 21.6367 26.5169 22.6654 26.8155 23.6436C25.8477 23.8744 24.8029 24.0603 23.702 24.1985C24.0485 23.6244 24.3905 23.032 24.7266 22.4226C25.0666 21.8061 25.3894 21.1887 25.6947 20.5735ZM23.4915 21.6778C22.9697 22.6237 22.4341 23.5267 21.8903 24.3791C20.8998 24.4531 19.8766 24.4913 18.8337 24.4913C17.795 24.4913 16.7847 24.4575 15.8117 24.3915C15.246 23.5279 14.6987 22.6223 14.1803 21.6859H14.1804C13.6634 20.7521 13.1875 19.8104 12.7563 18.874C13.1874 17.9355 13.662 16.9927 14.1761 16.0606L14.176 16.0608C14.6914 15.1262 15.2339 14.2249 15.7944 13.3668C16.787 13.2883 17.8049 13.2474 18.8336 13.2474H18.8337C19.867 13.2474 20.8862 13.2886 21.8786 13.3678C22.4305 14.2196 22.9693 15.118 23.4868 16.0527C24.0101 16.9979 24.4909 17.9344 24.9257 18.8529C24.4922 19.7871 24.0125 20.733 23.4915 21.6778ZM26.4329 5.02904C27.5506 5.70299 27.9852 8.42102 27.283 11.9852C27.2382 12.2126 27.1878 12.4443 27.133 12.679C25.7482 12.3449 24.2445 12.0963 22.6702 11.9419C21.7531 10.5763 20.8027 9.33482 19.8487 8.26001C20.1052 8.00202 20.3613 7.75602 20.6163 7.52387C23.0805 5.28162 25.3836 4.39634 26.4329 5.02904Z" fill="white"/>
<path d="M18.8342 15.7218C20.4802 15.7218 21.8147 17.117 21.8147 18.8382C21.8147 20.5593 20.4802 21.9546 18.8342 21.9546C17.1881 21.9546 15.8537 20.5593 15.8537 18.8382C15.8537 17.117 17.1881 15.7218 18.8342 15.7218Z" fill="#53C1DE"/>
</svg>
