<svg width="39" height="52" viewBox="0 0 39 52" fill="none" xmlns="http://www.w3.org/2000/svg">
<path d="M8.77301 50V46.4923H10.0859C10.3832 46.4923 10.6388 46.5407 10.8526 46.6376C11.0664 46.7311 11.2301 46.8681 11.3437 47.0485C11.4606 47.2255 11.5191 47.441 11.5191 47.6949C11.5191 47.9421 11.4606 48.1559 11.3437 48.3363C11.2301 48.5134 11.0664 48.6504 10.8526 48.7473C10.6388 48.8408 10.3832 48.8876 10.0859 48.8876H8.97847L9.14383 48.7172V50H8.77301ZM11.1683 50L10.2663 48.7272H10.6672L11.5742 50H11.1683ZM9.14383 48.7473L8.97847 48.5719H10.0759C10.4267 48.5719 10.6923 48.495 10.8727 48.3414C11.0564 48.1877 11.1483 47.9722 11.1483 47.6949C11.1483 47.4143 11.0564 47.1971 10.8727 47.0435C10.6923 46.8898 10.4267 46.813 10.0759 46.813H8.97847L9.14383 46.6376V48.7473ZM13.4035 48.0607H15.2576V48.3764H13.4035V48.0607ZM13.4435 49.6793H15.5532V50H13.0727V46.4923H15.4781V46.813H13.4435V49.6793ZM17.1033 50V46.4923H18.5315C18.9056 46.4923 19.233 46.5674 19.5136 46.7178C19.7976 46.8647 20.0181 47.0702 20.1751 47.3341C20.3321 47.598 20.4106 47.902 20.4106 48.2461C20.4106 48.5902 20.3321 48.8942 20.1751 49.1582C20.0181 49.4221 19.7976 49.6292 19.5136 49.7795C19.233 49.9265 18.9056 50 18.5315 50H17.1033ZM17.4741 49.6793H18.5114C18.8221 49.6793 19.091 49.6192 19.3182 49.4989C19.5487 49.3753 19.7274 49.2066 19.8544 48.9928C19.9813 48.7756 20.0448 48.5268 20.0448 48.2461C20.0448 47.9622 19.9813 47.7133 19.8544 47.4995C19.7274 47.2857 19.5487 47.1186 19.3182 46.9984C19.091 46.8748 18.8221 46.813 18.5114 46.813H17.4741V49.6793ZM23.3349 50.0301C22.8872 50.0301 22.5348 49.9015 22.2775 49.6442C22.0203 49.387 21.8917 49.0062 21.8917 48.5017V46.4923H22.2625V48.4867C22.2625 48.9009 22.356 49.2066 22.5431 49.4037C22.7302 49.6008 22.9941 49.6994 23.3349 49.6994C23.679 49.6994 23.9446 49.6008 24.1316 49.4037C24.3187 49.2066 24.4123 48.9009 24.4123 48.4867V46.4923H24.7731V48.5017C24.7731 49.0062 24.6444 49.387 24.3872 49.6442C24.1333 49.9015 23.7825 50.0301 23.3349 50.0301ZM26.0339 50L27.4721 48.0557V48.3414L26.1191 46.4923H26.545L27.6825 48.0357L27.5172 48.0407L28.6547 46.4923H29.0556L27.7176 48.3163V48.0557L29.1508 50H28.7198L27.5071 48.3514H27.6625L26.4598 50H26.0339Z" fill="#BDEBEA"/>
<g clip-path="url(#clip0_2_274)">
<path d="M26.8819 26.3966C28.2688 26.253 29.321 25.0574 29.2731 23.6225C29.2254 22.1877 28.0297 21.0398 26.5949 21.0398H26.4993C25.0165 21.0876 23.8688 22.3311 23.9166 23.8137C23.9645 24.5312 24.2514 25.1529 24.6818 25.5834C23.0557 28.788 20.5688 31.1315 16.8383 33.0924C14.3035 34.4316 11.6731 34.9099 9.04273 34.5752C6.89049 34.2882 5.21657 33.3317 4.16423 31.7532C2.63389 29.4097 2.49045 26.8747 3.78179 24.3399C4.69055 22.5224 6.12517 21.1832 7.03393 20.5136C6.84263 19.8919 6.55562 18.8397 6.41219 18.0745C-0.522672 23.0964 0.194788 29.888 2.29916 33.0924C3.87737 35.484 7.08179 36.9666 10.6209 36.9666C11.5774 36.9666 12.5339 36.8709 13.4905 36.6319C19.6123 35.4361 24.2515 31.8011 26.8819 26.3966ZM35.2994 20.4659C31.6645 16.2091 26.308 13.8656 20.1862 13.8656H19.421C18.9906 13.0047 18.0818 12.4307 17.0775 12.4307H16.9818C15.4993 12.4786 14.3515 13.722 14.3992 15.2048C14.4471 16.6396 15.6427 17.7875 17.0775 17.7875H17.1731C18.2252 17.7396 19.134 17.07 19.5166 16.1613H20.3775C24.0123 16.1613 27.4558 17.2135 30.5646 19.2701C32.9559 20.8485 34.6776 22.9051 35.6341 25.3921C36.4471 27.4009 36.3993 29.3618 35.5384 31.0359C34.1993 33.5707 31.9515 34.9578 28.9863 34.9578C27.0732 34.9578 25.2558 34.3838 24.2992 33.9533C23.7732 34.4316 22.8166 35.1968 22.147 35.6753C24.2036 36.6317 26.308 37.1579 28.3167 37.1579C32.908 37.1579 36.3037 34.6229 37.5951 32.0881C38.982 29.314 38.8862 24.5312 35.2994 20.4659ZM11.0035 27.2095C11.0514 28.6444 12.247 29.7921 13.6818 29.7921H13.7775C15.2601 29.7444 16.4079 28.5008 16.36 27.0182C16.3123 25.5832 15.1165 24.4355 13.6818 24.4355H13.5862C13.4905 24.4355 13.3469 24.4355 13.2515 24.4832C11.2905 21.2309 10.4775 17.6918 10.7645 13.8655C10.9557 10.9958 11.9123 8.50867 13.5862 6.45201C14.9731 4.68236 17.6514 3.82147 19.4689 3.77375C24.5384 3.67803 26.6905 9.9913 26.834 12.5263C27.4558 12.6697 28.508 13.0046 29.2254 13.2437C28.6514 5.49569 23.8688 1.47809 19.2776 1.47809C14.9731 1.47809 11.0035 4.58693 9.42517 9.17841C7.22522 15.3004 8.65999 21.1832 11.3382 25.8225C11.0992 26.1573 10.9557 26.6834 11.0035 27.2096V27.2095Z" fill="#764ABC"/>
</g>
<defs>
<clipPath id="clip0_2_274">
<rect width="37.5833" height="37.5833" fill="white" transform="translate(0.840584 0.526337)"/>
</clipPath>
</defs>
</svg>
