<svg width="69" height="52" viewBox="0 0 69 52" fill="none" xmlns="http://www.w3.org/2000/svg">
<path d="M1.42368 50.0301C1.1631 50.0301 0.912545 49.9883 0.672012 49.9048C0.434819 49.8179 0.251078 49.7077 0.120789 49.5741L0.266112 49.2884C0.389719 49.4087 0.555086 49.5106 0.762212 49.5941C0.972678 49.6743 1.19317 49.7144 1.42368 49.7144C1.64417 49.7144 1.8229 49.6876 1.95987 49.6342C2.10018 49.5774 2.20207 49.5022 2.26555 49.4087C2.33236 49.3151 2.36577 49.2116 2.36577 49.098C2.36577 48.961 2.32568 48.8508 2.2455 48.7673C2.16866 48.6837 2.06677 48.6186 1.93982 48.5718C1.81287 48.5217 1.67256 48.4783 1.51889 48.4415C1.36522 48.4048 1.21154 48.3664 1.05787 48.3263C0.904193 48.2829 0.762212 48.2261 0.631923 48.1559C0.504975 48.0858 0.401412 47.9939 0.321234 47.8803C0.244397 47.7634 0.205978 47.6114 0.205978 47.4243C0.205978 47.2506 0.251078 47.0919 0.341278 46.9482C0.434819 46.8012 0.576801 46.6843 0.767223 46.5975C0.957645 46.5073 1.20152 46.4622 1.49885 46.4622C1.69595 46.4622 1.89138 46.4906 2.08515 46.5473C2.27891 46.6008 2.44595 46.676 2.58626 46.7728L2.46098 47.0685C2.31065 46.9683 2.15029 46.8948 1.97991 46.848C1.81287 46.8012 1.65085 46.7779 1.49383 46.7779C1.28337 46.7779 1.10965 46.8063 0.972678 46.863C0.835708 46.9198 0.733815 46.9967 0.667001 47.0936C0.603527 47.1871 0.57179 47.294 0.57179 47.4143C0.57179 47.5512 0.610208 47.6615 0.687045 47.745C0.767223 47.8285 0.870786 47.8937 0.997734 47.9404C1.12802 47.9872 1.27 48.029 1.42368 48.0657C1.57735 48.1025 1.72936 48.1425 1.87969 48.186C2.03336 48.2294 2.17367 48.2862 2.30062 48.3564C2.43091 48.4232 2.53447 48.5134 2.61131 48.627C2.69149 48.7405 2.73158 48.8892 2.73158 49.0729C2.73158 49.2433 2.68481 49.402 2.59127 49.549C2.49773 49.6927 2.35407 49.8096 2.16031 49.8998C1.96989 49.9866 1.72435 50.0301 1.42368 50.0301ZM4.85052 50V46.8129H3.61779V46.4922H6.45408V46.8129H5.22134V50H4.85052ZM8.53727 50V48.6971L8.62246 48.9276L7.13416 46.4922H7.53004L8.83794 48.632H8.62747L9.93537 46.4922H10.3062L8.81789 48.9276L8.90308 48.6971V50H8.53727ZM11.4863 50V46.4922H11.8571V49.6793H13.8215V50H11.4863ZM15.4463 48.0607H17.3004V48.3764H15.4463V48.0607ZM15.4864 49.6793H17.5961V50H15.1156V46.4922H17.5209V46.8129H15.4864V49.6793ZM19.1461 50V46.4922H20.5743C20.9485 46.4922 21.2759 46.5674 21.5565 46.7177C21.8404 46.8647 22.0609 47.0702 22.218 47.3341C22.375 47.598 22.4535 47.902 22.4535 48.2461C22.4535 48.5902 22.375 48.8942 22.218 49.1581C22.0609 49.4221 21.8404 49.6292 21.5565 49.7795C21.2759 49.9265 20.9485 50 20.5743 50H19.1461ZM19.517 49.6793H20.5543C20.865 49.6793 21.1339 49.6192 21.3611 49.4989C21.5916 49.3753 21.7703 49.2066 21.8972 48.9928C22.0242 48.7756 22.0877 48.5267 22.0877 48.2461C22.0877 47.9621 22.0242 47.7133 21.8972 47.4995C21.7703 47.2856 21.5916 47.1186 21.3611 46.9983C21.1339 46.8747 20.865 46.8129 20.5543 46.8129H19.517V49.6793ZM27.4779 50.0301C27.2139 50.0301 26.9701 49.9866 26.7462 49.8998C26.5224 49.8096 26.3287 49.6843 26.165 49.5239C26.0013 49.3636 25.8726 49.1748 25.7791 48.9577C25.6889 48.7405 25.6438 48.5033 25.6438 48.2461C25.6438 47.9889 25.6889 47.7517 25.7791 47.5345C25.8726 47.3174 26.0013 47.1286 26.165 46.9683C26.332 46.8079 26.5274 46.6843 26.7513 46.5975C26.9751 46.5073 27.219 46.4622 27.4829 46.4622C27.7368 46.4622 27.9756 46.5056 28.1995 46.5924C28.4233 46.676 28.612 46.8029 28.7657 46.9733L28.5302 47.2088C28.3865 47.0618 28.2279 46.9566 28.0541 46.8931C27.8804 46.8263 27.6933 46.7929 27.4929 46.7929C27.2824 46.7929 27.087 46.8296 26.9066 46.9031C26.7262 46.9733 26.5692 47.0752 26.4356 47.2088C26.3019 47.3391 26.1967 47.4928 26.1199 47.6698C26.0464 47.8436 26.0096 48.0356 26.0096 48.2461C26.0096 48.4566 26.0464 48.6503 26.1199 48.8274C26.1967 49.0011 26.3019 49.1548 26.4356 49.2884C26.5692 49.4187 26.7262 49.5206 26.9066 49.5941C27.087 49.6643 27.2824 49.6993 27.4929 49.6993C27.6933 49.6993 27.8804 49.6659 28.0541 49.5991C28.2279 49.5323 28.3865 49.4254 28.5302 49.2784L28.7657 49.5139C28.612 49.6843 28.4233 49.8129 28.1995 49.8998C27.9756 49.9866 27.7351 50.0301 27.4779 50.0301ZM31.6946 50.0301C31.4307 50.0301 31.1852 49.9866 30.958 49.8998C30.7342 49.8096 30.5387 49.6843 30.3717 49.5239C30.208 49.3602 30.0794 49.1715 29.9858 48.9577C29.8956 48.7405 29.8505 48.5033 29.8505 48.2461C29.8505 47.9889 29.8956 47.7534 29.9858 47.5395C30.0794 47.3224 30.208 47.1336 30.3717 46.9733C30.5387 46.8096 30.7342 46.6843 30.958 46.5975C31.1818 46.5073 31.4274 46.4622 31.6946 46.4622C31.9585 46.4622 32.2024 46.5073 32.4262 46.5975C32.6501 46.6843 32.8438 46.8079 33.0075 46.9683C33.1746 47.1286 33.3032 47.3174 33.3934 47.5345C33.4869 47.7517 33.5337 47.9889 33.5337 48.2461C33.5337 48.5033 33.4869 48.7405 33.3934 48.9577C33.3032 49.1748 33.1746 49.3636 33.0075 49.5239C32.8438 49.6843 32.6501 49.8096 32.4262 49.8998C32.2024 49.9866 31.9585 50.0301 31.6946 50.0301ZM31.6946 49.6993C31.9051 49.6993 32.0989 49.6643 32.2759 49.5941C32.4563 49.5206 32.6117 49.4187 32.7419 49.2884C32.8756 49.1548 32.9791 49.0011 33.0526 48.8274C33.1261 48.6503 33.1629 48.4566 33.1629 48.2461C33.1629 48.0356 33.1261 47.8436 33.0526 47.6698C32.9791 47.4928 32.8756 47.3391 32.7419 47.2088C32.6117 47.0752 32.4563 46.9733 32.2759 46.9031C32.0989 46.8296 31.9051 46.7929 31.6946 46.7929C31.4842 46.7929 31.2887 46.8296 31.1083 46.9031C30.9279 46.9733 30.7709 47.0752 30.6373 47.2088C30.507 47.3391 30.4034 47.4928 30.3266 47.6698C30.2531 47.8436 30.2163 48.0356 30.2163 48.2461C30.2163 48.4532 30.2531 48.6453 30.3266 48.8224C30.4034 48.9994 30.507 49.1548 30.6373 49.2884C30.7709 49.4187 30.9279 49.5206 31.1083 49.5941C31.2887 49.6643 31.4842 49.6993 31.6946 49.6993ZM35.0433 50V46.4922H35.349L36.9525 49.2283H36.7922L38.3807 46.4922H38.6864V50H38.3306V47.0485H38.4158L36.9525 49.554H36.7771L35.3039 47.0485H35.3991V50H35.0433ZM40.5077 50V46.4922H41.8206C42.1179 46.4922 42.3735 46.5407 42.5873 46.6375C42.8011 46.7311 42.9648 46.8681 43.0784 47.0485C43.1953 47.2255 43.2538 47.441 43.2538 47.6949C43.2538 47.9421 43.1953 48.1559 43.0784 48.3363C42.9648 48.5134 42.8011 48.6503 42.5873 48.7472C42.3735 48.8441 42.1179 48.8925 41.8206 48.8925H40.7131L40.8785 48.7172V50H40.5077ZM40.8785 48.7472L40.7131 48.5668H41.8106C42.1614 48.5668 42.4269 48.4917 42.6073 48.3413C42.7911 48.1876 42.883 47.9722 42.883 47.6949C42.883 47.4143 42.7911 47.1971 42.6073 47.0434C42.4269 46.8898 42.1614 46.8129 41.8106 46.8129H40.7131L40.8785 46.6375V48.7472ZM46.3163 50.0301C46.0524 50.0301 45.8069 49.9866 45.5797 49.8998C45.3559 49.8096 45.1604 49.6843 44.9934 49.5239C44.8297 49.3602 44.7011 49.1715 44.6075 48.9577C44.5173 48.7405 44.4722 48.5033 44.4722 48.2461C44.4722 47.9889 44.5173 47.7534 44.6075 47.5395C44.7011 47.3224 44.8297 47.1336 44.9934 46.9733C45.1604 46.8096 45.3559 46.6843 45.5797 46.5975C45.8035 46.5073 46.0491 46.4622 46.3163 46.4622C46.5802 46.4622 46.8241 46.5073 47.048 46.5975C47.2718 46.6843 47.4655 46.8079 47.6292 46.9683C47.7963 47.1286 47.9249 47.3174 48.0151 47.5345C48.1086 47.7517 48.1554 47.9889 48.1554 48.2461C48.1554 48.5033 48.1086 48.7405 48.0151 48.9577C47.9249 49.1748 47.7963 49.3636 47.6292 49.5239C47.4655 49.6843 47.2718 49.8096 47.048 49.8998C46.8241 49.9866 46.5802 50.0301 46.3163 50.0301ZM46.3163 49.6993C46.5268 49.6993 46.7206 49.6643 46.8976 49.5941C47.078 49.5206 47.2334 49.4187 47.3637 49.2884C47.4973 49.1548 47.6008 49.0011 47.6743 48.8274C47.7478 48.6503 47.7846 48.4566 47.7846 48.2461C47.7846 48.0356 47.7478 47.8436 47.6743 47.6698C47.6008 47.4928 47.4973 47.3391 47.3637 47.2088C47.2334 47.0752 47.078 46.9733 46.8976 46.9031C46.7206 46.8296 46.5268 46.7929 46.3163 46.7929C46.1059 46.7929 45.9104 46.8296 45.73 46.9031C45.5496 46.9733 45.3926 47.0752 45.259 47.2088C45.1287 47.3391 45.0251 47.4928 44.9483 47.6698C44.8748 47.8436 44.8381 48.0356 44.8381 48.2461C44.8381 48.4532 44.8748 48.6453 44.9483 48.8224C45.0251 48.9994 45.1287 49.1548 45.259 49.2884C45.3926 49.4187 45.5496 49.5206 45.73 49.5941C45.9104 49.6643 46.1059 49.6993 46.3163 49.6993ZM49.665 50V46.4922H49.9707L52.391 49.539H52.2307V46.4922H52.5965V50H52.2908L49.8755 46.9532H50.0358V50H49.665ZM54.7506 48.0607H56.6047V48.3764H54.7506V48.0607ZM54.7906 49.6793H56.9003V50H54.4198V46.4922H56.8252V46.8129H54.7906V49.6793ZM58.4504 50V46.4922H58.7561L61.1764 49.539H61.0161V46.4922H61.3819V50H61.0762L58.6608 46.9532H58.8212V50H58.4504ZM63.8867 50V46.8129H62.654V46.4922H65.4903V46.8129H64.2575V50H63.8867ZM67.6744 50.0301C67.4138 50.0301 67.1633 49.9883 66.9227 49.9048C66.6855 49.8179 66.5018 49.7077 66.3715 49.5741L66.5168 49.2884C66.6404 49.4087 66.8058 49.5106 67.0129 49.5941C67.2234 49.6743 67.4439 49.7144 67.6744 49.7144C67.8949 49.7144 68.0736 49.6876 68.2106 49.6342C68.3509 49.5774 68.4528 49.5022 68.5163 49.4087C68.5831 49.3151 68.6165 49.2116 68.6165 49.098C68.6165 48.961 68.5764 48.8508 68.4962 48.7673C68.4194 48.6837 68.3175 48.6186 68.1905 48.5718C68.0636 48.5217 67.9233 48.4783 67.7696 48.4415C67.6159 48.4048 67.4623 48.3664 67.3086 48.3263C67.1549 48.2829 67.0129 48.2261 66.8826 48.1559C66.7557 48.0858 66.6521 47.9939 66.572 47.8803C66.4951 47.7634 66.4567 47.6114 66.4567 47.4243C66.4567 47.2506 66.5018 47.0919 66.592 46.9482C66.6855 46.8012 66.8275 46.6843 67.0179 46.5975C67.2084 46.5073 67.4522 46.4622 67.7496 46.4622C67.9467 46.4622 68.1421 46.4906 68.3359 46.5473C68.5296 46.6008 68.6967 46.676 68.837 46.7728L68.7117 47.0685C68.5614 46.9683 68.401 46.8948 68.2306 46.848C68.0636 46.8012 67.9016 46.7779 67.7446 46.7779C67.5341 46.7779 67.3604 46.8063 67.2234 46.863C67.0864 46.9198 66.9845 46.9967 66.9177 47.0936C66.8542 47.1871 66.8225 47.294 66.8225 47.4143C66.8225 47.5512 66.8609 47.6615 66.9378 47.745C67.0179 47.8285 67.1215 47.8937 67.2485 47.9404C67.3787 47.9872 67.5207 48.029 67.6744 48.0657C67.8281 48.1025 67.9801 48.1425 68.1304 48.186C68.2841 48.2294 68.4244 48.2862 68.5513 48.3564C68.6816 48.4232 68.7852 48.5134 68.862 48.627C68.9422 48.7405 68.9823 48.8892 68.9823 49.0729C68.9823 49.2433 68.9355 49.402 68.842 49.549C68.7484 49.6927 68.6048 49.8096 68.411 49.8998C68.2206 49.9866 67.9751 50.0301 67.6744 50.0301Z" fill="#BDEBEA"/>
<g clip-path="url(#clip0_2_261)">
<path d="M38.2114 37.5708C38.2678 37.4433 38.41 37.3548 38.5134 37.2474C40.0904 35.5939 41.6808 33.9552 43.2362 32.2816C43.723 31.8321 44.0991 31.276 44.3352 30.6569C44.5713 30.0378 44.661 29.3725 44.5971 28.713C44.5483 28.4305 44.4842 28.151 44.4052 27.8755C43.9811 28.2781 43.5865 28.6445 43.1893 29.0136C42.5719 29.588 41.9572 30.1651 41.3345 30.7328C40.9673 31.1072 40.4951 31.3614 39.9804 31.4618C39.4657 31.5622 38.9326 31.5041 38.4517 31.2952C37.9647 31.1163 37.5411 30.7983 37.2333 30.3808C36.9255 29.9633 36.7472 29.4645 36.7203 28.9465C36.7059 28.8798 36.6866 28.8144 36.6626 28.7505C36.1889 29.1532 35.7352 29.5236 35.2856 29.9047L25.9406 37.8232C25.8761 37.8782 25.8064 37.9466 25.746 38.0003H38.2047L38.1859 37.9882C38.1188 37.9413 38.1537 37.6943 38.2114 37.5708Z" fill="#FFCEBF"/>
<path d="M25.1752 37.5706C25.286 37.4263 25.4198 37.3012 25.5711 37.2002L38.5036 26.2285C39.3859 25.4796 40.264 24.7267 41.1382 23.9698C41.2462 23.8944 41.3308 23.7903 41.3825 23.6691C41.5916 22.758 41.6212 21.8148 41.4697 20.8923C41.3355 20.9863 41.263 21.0265 41.2013 21.0923C40.1423 22.0398 39.0888 22.9954 38.0245 23.9375C37.6719 24.2924 37.2159 24.5263 36.7221 24.6056C36.2282 24.685 35.7219 24.6057 35.2759 24.3791C34.8209 24.1643 34.4401 23.819 34.182 23.3871C33.9239 22.9553 33.8001 22.4564 33.8264 21.9539V21.5191C33.6318 21.6613 33.4895 21.7566 33.3567 21.864C28.1806 26.0084 23.0055 30.1497 17.8312 34.2878C17.5977 34.4744 17.3186 34.8905 17.0126 34.4865C16.7066 34.0825 17.1723 33.9161 17.4071 33.7282C22.9232 29.3019 28.4419 24.8797 33.9633 20.4615C34.8625 19.7408 34.9216 19.4388 34.3364 18.294L33.9875 18.6215C33.0305 19.5113 32.0629 20.389 31.1207 21.2936C30.7343 21.6664 30.2502 21.9223 29.7245 22.0317C29.1988 22.1411 28.6529 22.0996 28.1498 21.9119C27.6467 21.7243 27.2069 21.3982 26.8812 20.9713C26.5556 20.5444 26.3573 20.034 26.3093 19.4992C26.1308 19.6334 25.9765 19.7314 25.8302 19.8455L17.6433 26.1909C17.5021 26.3294 17.3411 26.4461 17.1656 26.5372C17.0331 26.5772 16.8908 26.5701 16.7629 26.5171V38.0068H25.1591C25.1279 37.9378 25.1131 37.8625 25.1159 37.7868C25.1187 37.7111 25.139 37.6371 25.1752 37.5706Z" fill="#FFCEBF"/>
<path d="M47.8572 1.09672C47.6291 1.84427 47.4076 2.59317 47.2076 3.34877C47.0229 3.88274 47.0444 4.46645 47.2679 4.9854C47.4913 5.50434 47.9007 5.92105 48.4155 6.15376C49.9904 6.98157 51.765 7.35342 53.5397 7.22745V1.22422C53.52 1.0926 53.5273 0.958345 53.5611 0.829642C53.5987 0.756841 53.6461 0.689553 53.7021 0.629669H47.8518C47.9418 0.734353 47.9109 0.918221 47.8572 1.09672Z" fill="#FF6196"/>
<path d="M36.1077 13.9929C36.0799 14.663 35.8455 15.3081 35.4367 15.8397C33.9751 17.7263 32.2967 19.4345 30.436 20.9289C30.1359 21.2067 29.7556 21.3823 29.3496 21.4305C28.9435 21.4787 28.5327 21.3971 28.1759 21.1973C27.8208 21.0456 27.5214 20.7877 27.3188 20.4589C27.1162 20.1302 27.0204 19.7468 27.0445 19.3614C27.0875 18.888 27.284 18.4417 27.6041 18.0904C29.6849 16.1064 31.9392 14.3129 34.3402 12.7314C34.4974 12.6081 34.6894 12.5373 34.8891 12.5291C35.0888 12.5209 35.2859 12.5757 35.4528 12.6857C35.672 12.8219 35.8493 13.0161 35.9649 13.2468C36.0805 13.4776 36.1299 13.7358 36.1077 13.9929Z" fill="#FF87AF"/>
<path d="M34.4988 22.1274C34.4676 21.8308 34.5057 21.5309 34.61 21.2515C34.7144 20.972 34.8821 20.7206 35.1 20.5169C37.1373 18.6378 39.3231 16.9264 41.6361 15.3995C41.7059 15.3552 41.7703 15.3109 41.8468 15.2652C42.0488 15.1194 42.2936 15.0449 42.5426 15.0534C42.7917 15.0619 43.0308 15.1529 43.2224 15.3122C43.4078 15.4693 43.539 15.6808 43.5973 15.9167C43.6556 16.1525 43.6381 16.4008 43.5472 16.6261C43.2546 17.6008 42.7145 18.483 41.9796 19.1869C40.4871 20.6572 38.9658 22.098 37.4165 23.5084C37.1832 23.7484 36.8767 23.9039 36.5453 23.9506C36.2139 23.9972 35.8764 23.9323 35.5859 23.7661C35.2806 23.6075 35.0207 23.3739 34.8306 23.0873C34.6404 22.8006 34.5262 22.4703 34.4988 22.1274Z" fill="#FF87AF"/>
<path d="M44.1831 23.0143C43.8073 23.4169 43.4207 23.8007 43.0597 24.2128C42.9512 24.372 42.8611 24.5431 42.7913 24.7228C42.9899 24.7818 43.2221 24.9375 43.3832 24.8825C44.2032 24.6073 45.0031 24.2772 45.9036 23.9296C45.7077 24.3805 45.5601 24.7966 45.352 25.1777C44.495 26.618 43.4218 27.918 42.1699 29.0323C41.6939 29.4913 41.1996 29.9301 40.6869 30.3489C40.4154 30.5742 40.0889 30.7233 39.7408 30.781C39.3928 30.8388 39.0356 30.803 38.7059 30.6774C38.3762 30.5518 38.0858 30.3409 37.8644 30.0662C37.643 29.7915 37.4985 29.463 37.4457 29.1141C37.4242 28.9202 37.4413 28.7239 37.4962 28.5366C37.551 28.3493 37.6424 28.1747 37.7651 28.023C39.5915 26.0397 41.6787 24.3137 43.9697 22.8921C43.9975 22.8813 44.027 22.8754 44.0569 22.8747L44.1831 23.0143Z" fill="#FF87AF"/>
<path d="M47.2644 17.6687L49.5607 7.46869L51.1712 7.84582L50.3405 10.3703C49.5647 12.719 48.7796 15.0677 48.0227 17.419C47.875 17.8539 47.6818 17.9344 47.2644 17.6687Z" fill="#FF6196"/>
<path d="M44.6691 23.6679C44.912 22.7405 45.1536 21.8829 45.3576 21.0159C45.5564 20.1751 45.9346 19.3872 46.4662 18.7061C46.7923 18.278 47.1587 18.4485 47.5331 18.5411C47.8794 18.6256 47.9666 18.8793 47.9814 19.2121C48.036 20.1325 47.7557 21.0416 47.1922 21.7715C46.5215 22.6031 45.6544 23.2548 44.6691 23.6679Z" fill="#FF6196"/>
<path d="M54.2396 1.72883C54.2596 1.42992 54.252 1.12981 54.2168 0.832306C54.1891 0.749206 54.1343 0.677831 54.0611 0.629648C54.0015 0.581204 53.9318 0.5468 53.8571 0.528991C53.8142 0.520938 53.7538 0.565227 53.696 0.628306C53.6401 0.68819 53.5927 0.755478 53.5551 0.82828C53.5212 0.956982 53.5139 1.09124 53.5337 1.22286V7.22474C51.759 7.35071 49.9843 6.97887 48.4095 6.15106C47.8946 5.91834 47.4853 5.50163 47.2619 4.98269C47.0384 4.46375 47.0169 3.88003 47.2016 3.34606C47.4016 2.59046 47.623 1.84157 47.8512 1.09402C47.9049 0.915516 47.9357 0.731648 47.8512 0.626964C47.8042 0.576003 47.7392 0.545222 47.67 0.54107C47.5814 0.542026 47.4955 0.572219 47.4257 0.626964C47.3254 0.686997 47.2454 0.775852 47.1962 0.881964C46.9278 1.68723 46.6916 2.50054 46.4863 3.32191C46.4088 3.64558 46.3879 3.98023 46.4245 4.31104C46.4765 4.90958 46.6991 5.48065 47.0659 5.95645C47.4327 6.43224 47.9284 6.79277 48.4941 6.99524C48.7477 7.10127 48.8967 7.20595 48.8256 7.54014C48.7276 7.96424 48.6323 8.38835 48.5357 8.81379C47.878 11.6966 47.224 14.5808 46.5735 17.4663C46.5552 17.595 46.4986 17.7152 46.4111 17.8112C45.9824 18.152 45.6222 18.571 45.3495 19.046C45.0021 19.6728 44.7617 20.3532 44.6382 21.0591C44.6145 21.2843 44.5331 21.4996 44.4019 21.6841C44.2708 21.8687 44.0942 22.0163 43.8893 22.1127C43.3296 22.3959 42.8156 22.7623 42.1942 23.1434C42.2357 22.3962 42.2276 21.647 42.1701 20.9008C42.1228 20.6712 42.1328 20.4336 42.1993 20.2088C42.2658 19.9841 42.3867 19.7792 42.5512 19.6124C43.3698 18.8014 43.9532 17.7838 44.2396 16.6678C44.3251 16.4091 44.3486 16.1339 44.3081 15.8644C44.2675 15.595 44.1642 15.3388 44.0064 15.1167C43.8485 14.8946 43.6406 14.7127 43.3995 14.5858C43.1584 14.4589 42.8908 14.3905 42.6183 14.3862C42.1772 14.3813 41.7441 14.5044 41.3715 14.7405C40.0909 15.615 38.8325 16.5217 37.5975 17.4596C36.8634 18.0126 36.1722 18.6246 35.4609 19.2044C35.4302 19.1714 35.4037 19.1349 35.3817 19.0956C35.3681 18.9968 35.3415 18.9003 35.3025 18.8084C34.708 17.8904 35.12 17.2234 35.7656 16.5376C36.4381 15.8326 36.8097 14.8935 36.8017 13.9192C36.8225 13.4227 36.6671 12.935 36.3628 12.5422C36.2007 12.3428 36.001 12.1772 35.775 12.055C35.4539 11.8793 35.0868 11.8059 34.7229 11.8448C34.359 11.8836 34.0157 12.0328 33.739 12.2724L33.3645 12.5408C32.5096 13.1528 31.644 13.7487 30.8213 14.4037C29.6202 15.3626 28.445 16.3534 27.2969 17.3751C26.7601 17.8488 26.3682 18.4957 25.8112 18.9359C22.9069 21.2296 19.9717 23.4816 17.0473 25.7484C16.9467 25.8084 16.8542 25.8811 16.7721 25.9645C16.7637 25.9767 16.7565 25.9898 16.7506 26.0034C16.6889 26.1471 16.6366 26.3846 16.709 26.4718C16.7268 26.4908 16.7483 26.5058 16.7721 26.5161C16.9 26.5692 17.0423 26.5763 17.1748 26.5363C17.3503 26.4452 17.5113 26.3285 17.6525 26.19L25.8394 19.8445C25.9857 19.7305 26.14 19.6271 26.3185 19.4983C26.3665 20.0331 26.5648 20.5434 26.8904 20.9703C27.2161 21.3973 27.6559 21.7234 28.159 21.911C28.6621 22.0986 29.208 22.1401 29.7337 22.0307C30.2594 21.9213 30.7435 21.6654 31.1299 21.2927C32.0694 20.3881 33.0397 19.5104 33.9967 18.6205L34.3456 18.2931C34.9308 19.4379 34.8717 19.7399 33.9725 20.4606C28.4466 24.8823 22.9248 29.305 17.4069 33.7286C17.1721 33.9165 16.7077 34.0869 17.0124 34.4869C17.317 34.8868 17.5975 34.4748 17.831 34.2882C23.008 30.1537 28.1813 26.0137 33.3511 21.8684C33.4853 21.7611 33.6262 21.6658 33.8209 21.5235V21.9583C33.7945 22.4608 33.9183 22.9597 34.1764 23.3916C34.4346 23.8234 34.8153 24.1687 35.2703 24.3835C35.7163 24.6101 36.2226 24.6894 36.7165 24.6101C37.2104 24.5307 37.6664 24.2968 38.0189 23.942C39.0832 23.0025 40.1368 22.0442 41.1957 21.0967C41.2628 21.0363 41.3407 20.9907 41.4641 20.8967C41.6156 21.8192 41.586 22.7624 41.3769 23.6736C41.3253 23.7947 41.2406 23.8989 41.1326 23.9742C40.2576 24.7302 39.3794 25.4832 38.4981 26.2329L25.5709 37.206C25.4196 37.307 25.2858 37.4321 25.175 37.5764C25.1397 37.6422 25.1198 37.7153 25.117 37.7899C25.1142 37.8646 25.1286 37.9389 25.1589 38.0072C25.2196 38.0526 25.2897 38.0838 25.364 38.0985C25.4384 38.1131 25.5151 38.1108 25.5884 38.0918C25.6463 38.075 25.6995 38.0451 25.7441 38.0045C25.8112 37.9508 25.8783 37.8824 25.9387 37.8274L35.2837 29.909C35.7333 29.5278 36.187 29.152 36.6607 28.7548C36.6847 28.8186 36.704 28.8841 36.7185 28.9507C36.7453 29.4687 36.9236 29.9675 37.2314 30.385C37.5392 30.8026 37.9629 31.1205 38.4498 31.2994C38.9308 31.5083 39.4638 31.5664 39.9785 31.466C40.4933 31.3656 40.9654 31.1114 41.3326 30.737C41.9553 30.1693 42.57 29.5922 43.1874 29.0178C43.59 28.6487 43.9792 28.2783 44.4033 27.8797C44.4823 28.1552 44.5464 28.4348 44.5953 28.7172C44.6569 29.3745 44.5663 30.0372 44.3302 30.6538C44.0942 31.2704 43.7192 31.8243 43.2344 32.2724C41.6789 33.9474 40.0885 35.5861 38.5115 37.2382C38.4082 37.3456 38.2659 37.4341 38.2095 37.5616C38.1532 37.6891 38.1169 37.9388 38.184 37.9925L38.2028 38.0045C38.3435 38.073 38.5018 38.0968 38.6564 38.073C38.6998 38.0641 38.7384 38.0398 38.7652 38.0045C38.8027 37.9656 38.839 37.9173 38.8752 37.8811C40.1529 36.5604 41.4373 35.2465 42.7056 33.9165C43.2175 33.3978 43.6988 32.8497 44.147 32.2751C44.7314 31.6281 45.1189 30.8277 45.264 29.9679C45.409 29.1082 45.3055 28.225 44.9657 27.422C44.9291 27.243 44.9648 27.0568 45.065 26.904C45.1522 26.7537 45.2489 26.6074 45.3482 26.4624C45.666 26.0498 45.9306 25.5989 46.136 25.1203C46.5328 23.9457 47.1419 22.8539 47.9331 21.8993C48.2968 21.4382 48.547 20.898 48.6635 20.3225C48.7801 19.7469 48.7598 19.1519 48.6041 18.5856C48.5491 18.3703 48.5491 18.1447 48.6041 17.9294C49.2832 15.8263 49.9825 13.7299 50.675 11.6322L51.601 8.82184L51.8869 7.9535C52.4962 7.9535 53.0706 7.94143 53.6424 7.9535C54.1175 7.96693 54.2624 7.74414 54.257 7.28245C54.2289 5.43035 54.2396 3.57959 54.2396 1.72883ZM30.4347 20.929C30.1347 21.2067 29.7543 21.3823 29.3483 21.4305C28.9423 21.4787 28.5314 21.3971 28.1746 21.1974C27.8195 21.0457 27.5201 20.7877 27.3175 20.459C27.1149 20.1302 27.0191 19.7468 27.0432 19.3614C27.0862 18.888 27.2828 18.4417 27.6029 18.0904C29.6836 16.1064 31.938 14.3129 34.3389 12.7314C34.4699 12.6388 34.619 12.5747 34.7764 12.5435C34.882 12.524 34.9903 12.524 35.0958 12.5435C35.2223 12.5681 35.343 12.6164 35.4515 12.6858C35.671 12.822 35.8484 13.0164 35.964 13.2474C36.0796 13.4784 36.1289 13.737 36.1065 13.9943C36.0786 14.6644 35.8442 15.3094 35.4354 15.841C33.9738 17.7272 32.2954 19.4349 30.4347 20.929ZM37.4137 23.5179C37.1803 23.7578 36.8739 23.9133 36.5424 23.96C36.211 24.0066 35.8735 23.9418 35.583 23.7756C35.2772 23.6166 35.017 23.3824 34.8268 23.0949C34.6366 22.8075 34.5227 22.4764 34.4959 22.1328C34.4648 21.8362 34.5029 21.5363 34.6072 21.2569C34.7115 20.9774 34.8792 20.726 35.0972 20.5223C37.1345 18.6432 39.3203 16.9318 41.6332 15.4049C41.703 15.3606 41.7674 15.3163 41.8439 15.2706C42.046 15.1248 42.2908 15.0503 42.5398 15.0588C42.7888 15.0673 43.028 15.1583 43.2196 15.3176C43.405 15.4747 43.5362 15.6862 43.5945 15.9221C43.6528 16.1579 43.6353 16.4062 43.5444 16.6315C43.2518 17.6062 42.7117 18.4884 41.9768 19.1923C40.4965 20.6713 38.9571 22.0952 37.4163 23.5125L37.4137 23.5179ZM45.3468 25.1834C44.491 26.6214 43.4196 27.9196 42.1701 29.0326C41.6941 29.4916 41.1997 29.9304 40.687 30.3492C40.4156 30.5745 40.0891 30.7236 39.741 30.7814C39.393 30.8391 39.0358 30.8033 38.7061 30.6777C38.3764 30.5521 38.086 30.3412 37.8646 30.0665C37.6431 29.7918 37.4986 29.4633 37.4459 29.1144C37.4244 28.9205 37.4415 28.7242 37.4963 28.5369C37.5512 28.3496 37.6426 28.175 37.7653 28.0233C39.5917 26.04 41.6789 24.314 43.9698 22.8925C43.9977 22.8816 44.0272 22.8757 44.0571 22.875L44.1913 23.0092C43.8155 23.4118 43.429 23.7957 43.0679 24.2077C42.9594 24.367 42.8693 24.5381 42.7995 24.7177C42.9981 24.7768 43.2303 24.9324 43.3914 24.8774C44.0396 24.66 44.6771 24.4077 45.3603 24.1393L45.9119 23.9245C45.7052 24.3808 45.5575 24.7969 45.3495 25.1781L45.3468 25.1834ZM47.1895 21.7812C46.6889 22.4185 46.0614 22.945 45.3468 23.3273C45.1258 23.4508 44.899 23.5662 44.6664 23.6736C44.9053 22.7596 45.1442 21.9127 45.3468 21.0565L45.3549 21.0216C45.5537 20.1808 45.9319 19.3929 46.4635 18.7118C46.7896 18.2837 47.156 18.4541 47.5304 18.5467C47.8767 18.6313 47.9639 18.8849 47.9787 19.2178C48.0337 20.1374 47.7544 21.0459 47.1922 21.7758L47.1895 21.7812ZM50.3301 10.3733C49.5543 12.722 48.7692 15.0707 48.0122 17.422C47.87 17.8636 47.6767 17.9441 47.2593 17.6784L49.2497 8.8299L49.5557 7.47169L51.1662 7.84882L50.8427 8.8299L50.3301 10.3733Z" fill="black"/>
</g>
<defs>
<clipPath id="clip0_2_261">
<rect width="37.5833" height="37.5833" fill="white" transform="translate(16.6729 0.526367)"/>
</clipPath>
</defs>
</svg>
