<svg width="39" height="52" viewBox="0 0 39 52" fill="none" xmlns="http://www.w3.org/2000/svg">
<path d="M0.673428 19.0452V37.8369H19.4651H38.2568V19.0452V0.253582H19.4651H0.673428V19.0452Z" fill="#007ACC"/>
<path d="M8.98468 19.1698L8.97275 20.709H11.4186H13.8645L13.8645 27.6589V34.6088H15.5946H17.3246V27.6589V20.709H19.7705H22.2164L22.2164 19.1997C22.2164 18.3645 22.1985 17.6665 22.1746 17.6486C22.1567 17.6247 19.1799 17.6128 15.5707 17.6188L9.00257 17.6367L8.98468 19.1698Z" fill="white"/>
<path d="M30.9991 17.5931C31.9536 17.8318 32.6814 18.2553 33.3495 18.9473C33.6955 19.3172 34.2086 19.9913 34.2503 20.1524C34.2623 20.2001 32.6277 21.2978 31.6374 21.9122C31.6016 21.9361 31.4584 21.781 31.2974 21.5424C30.8142 20.8384 30.3071 20.5342 29.5315 20.4805C28.3921 20.4029 27.6583 20.9995 27.6643 21.9957C27.6643 22.2881 27.7061 22.4611 27.8254 22.6997C28.0759 23.2187 28.5413 23.5289 30.0028 24.1613C32.6933 25.3186 33.8447 26.0822 34.5606 27.1679C35.36 28.3789 35.5389 30.3118 34.996 31.7495C34.3995 33.3125 32.92 34.3744 30.838 34.7264C30.1937 34.8397 28.6665 34.8218 27.9745 34.6965C26.4652 34.4281 25.0335 33.6824 24.1506 32.704C23.8046 32.3222 23.1305 31.326 23.1722 31.2544C23.1901 31.2305 23.3452 31.1351 23.5182 31.0336C23.6853 30.9382 24.3176 30.5743 24.9142 30.2283L25.9939 29.6019L26.2206 29.936C26.5368 30.4192 27.2288 31.0814 27.6464 31.3021C28.8455 31.9345 30.492 31.845 31.3033 31.1172C31.6493 30.801 31.7925 30.4729 31.7925 29.9897C31.7925 29.5542 31.7388 29.3633 31.5121 29.0352C31.2198 28.6176 30.6233 28.2656 28.929 27.5318C26.9902 26.6966 26.155 26.1776 25.3914 25.3544C24.95 24.8771 24.5324 24.1135 24.3594 23.4752C24.2162 22.9443 24.1804 21.6139 24.2937 21.077C24.6934 19.2038 26.1073 17.8974 28.1475 17.5096C28.8097 17.3843 30.3488 17.4321 30.9991 17.5931Z" fill="white"/>
<path d="M1.57203 49.7272V46.5401H0.339295V46.2194H3.17558V46.5401H1.94285V49.7272H1.57203ZM5.25878 49.7272V48.4243L5.34397 48.6548L3.85567 46.2194H4.25155L5.55945 48.3591H5.34898L6.65688 46.2194H7.0277L5.5394 48.6548L5.62459 48.4243V49.7272H5.25878ZM8.2078 49.7272V46.2194H9.52072C9.81804 46.2194 10.0736 46.2678 10.2874 46.3647C10.5012 46.4583 10.6649 46.5952 10.7785 46.7756C10.8954 46.9527 10.9539 47.1682 10.9539 47.4221C10.9539 47.6693 10.8954 47.8831 10.7785 48.0635C10.6649 48.2405 10.5012 48.3775 10.2874 48.4744C10.0736 48.5713 9.81804 48.6197 9.52072 48.6197H8.41326L8.57863 48.4443V49.7272H8.2078ZM8.57863 48.4744L8.41326 48.294H9.51069C9.86147 48.294 10.1271 48.2188 10.3075 48.0685C10.4912 47.9148 10.5831 47.6993 10.5831 47.4221C10.5831 47.1414 10.4912 46.9243 10.3075 46.7706C10.1271 46.6169 9.86147 46.5401 9.51069 46.5401H8.41326L8.57863 46.3647V48.4744ZM12.7648 47.7879H14.619V48.1036H12.7648V47.7879ZM12.8049 49.4065H14.9146V49.7272H12.4341V46.2194H14.8394V46.5401H12.8049V49.4065ZM17.4318 49.7572C17.1712 49.7572 16.9207 49.7155 16.6802 49.632C16.443 49.5451 16.2592 49.4349 16.1289 49.3012L16.2743 49.0156C16.3979 49.1359 16.5632 49.2378 16.7704 49.3213C16.9808 49.4015 17.2013 49.4415 17.4318 49.4415C17.6523 49.4415 17.831 49.4148 17.968 49.3614C18.1083 49.3046 18.2102 49.2294 18.2737 49.1359C18.3405 49.0423 18.3739 48.9388 18.3739 48.8252C18.3739 48.6882 18.3338 48.578 18.2536 48.4944C18.1768 48.4109 18.0749 48.3458 17.948 48.299C17.821 48.2489 17.6807 48.2055 17.527 48.1687C17.3734 48.132 17.2197 48.0936 17.066 48.0535C16.9123 48.01 16.7704 47.9532 16.6401 47.8831C16.5131 47.8129 16.4096 47.7211 16.3294 47.6075C16.2525 47.4905 16.2141 47.3385 16.2141 47.1515C16.2141 46.9777 16.2592 46.8191 16.3494 46.6754C16.443 46.5284 16.5849 46.4115 16.7754 46.3246C16.9658 46.2344 17.2097 46.1893 17.507 46.1893C17.7041 46.1893 17.8995 46.2177 18.0933 46.2745C18.2871 46.328 18.4541 46.4031 18.5944 46.5L18.4691 46.7957C18.3188 46.6955 18.1584 46.622 17.9881 46.5752C17.821 46.5284 17.659 46.505 17.502 46.505C17.2915 46.505 17.1178 46.5334 16.9808 46.5902C16.8439 46.647 16.742 46.7238 16.6751 46.8207C16.6117 46.9143 16.5799 47.0212 16.5799 47.1414C16.5799 47.2784 16.6184 47.3887 16.6952 47.4722C16.7754 47.5557 16.8789 47.6208 17.0059 47.6676C17.1362 47.7144 17.2781 47.7561 17.4318 47.7929C17.5855 47.8296 17.7375 47.8697 17.8878 47.9132C18.0415 47.9566 18.1818 48.0134 18.3088 48.0835C18.4391 48.1503 18.5426 48.2405 18.6195 48.3541C18.6996 48.4677 18.7397 48.6164 18.7397 48.8001C18.7397 48.9705 18.693 49.1292 18.5994 49.2762C18.5059 49.4198 18.3622 49.5368 18.1685 49.627C17.978 49.7138 17.7325 49.7572 17.4318 49.7572ZM21.7495 49.7572C21.4855 49.7572 21.2417 49.7138 21.0178 49.627C20.794 49.5368 20.6002 49.4115 20.4366 49.2511C20.2729 49.0908 20.1442 48.902 20.0507 48.6849C19.9605 48.4677 19.9154 48.2305 19.9154 47.9733C19.9154 47.716 19.9605 47.4789 20.0507 47.2617C20.1442 47.0446 20.2729 46.8558 20.4366 46.6955C20.6036 46.5351 20.799 46.4115 21.0229 46.3246C21.2467 46.2344 21.4906 46.1893 21.7545 46.1893C22.0084 46.1893 22.2472 46.2328 22.4711 46.3196C22.6949 46.4031 22.8836 46.5301 23.0373 46.7005L22.8018 46.936C22.6581 46.789 22.4995 46.6838 22.3257 46.6203C22.152 46.5535 21.9649 46.5201 21.7645 46.5201C21.554 46.5201 21.3586 46.5568 21.1782 46.6303C20.9978 46.7005 20.8408 46.8024 20.7072 46.936C20.5735 47.0663 20.4683 47.2199 20.3915 47.397C20.318 47.5707 20.2812 47.7628 20.2812 47.9733C20.2812 48.1838 20.318 48.3775 20.3915 48.5546C20.4683 48.7283 20.5735 48.882 20.7072 49.0156C20.8408 49.1459 20.9978 49.2478 21.1782 49.3213C21.3586 49.3914 21.554 49.4265 21.7645 49.4265C21.9649 49.4265 22.152 49.3931 22.3257 49.3263C22.4995 49.2595 22.6581 49.1526 22.8018 49.0056L23.0373 49.2411C22.8836 49.4115 22.6949 49.5401 22.4711 49.627C22.2472 49.7138 22.0067 49.7572 21.7495 49.7572ZM24.5062 49.7272V46.2194H25.8191C26.1165 46.2194 26.372 46.2678 26.5858 46.3647C26.7996 46.4583 26.9633 46.5952 27.0769 46.7756C27.1939 46.9527 27.2523 47.1682 27.2523 47.4221C27.2523 47.6693 27.1939 47.8831 27.0769 48.0635C26.9633 48.2405 26.7996 48.3775 26.5858 48.4744C26.372 48.5679 26.1165 48.6147 25.8191 48.6147H24.7117L24.877 48.4443V49.7272H24.5062ZM26.9015 49.7272L25.9995 48.4544H26.4004L27.3074 49.7272H26.9015ZM24.877 48.4744L24.7117 48.299H25.8091C26.1599 48.299 26.4255 48.2222 26.6059 48.0685C26.7896 47.9148 26.8815 47.6993 26.8815 47.4221C26.8815 47.1414 26.7896 46.9243 26.6059 46.7706C26.4255 46.6169 26.1599 46.5401 25.8091 46.5401H24.7117L24.877 46.3647V48.4744ZM28.8059 49.7272V46.2194H29.1768V49.7272H28.8059ZM30.9965 49.7272V46.2194H32.3094C32.6067 46.2194 32.8623 46.2678 33.0761 46.3647C33.2899 46.4583 33.4536 46.5952 33.5672 46.7756C33.6841 46.9527 33.7426 47.1682 33.7426 47.4221C33.7426 47.6693 33.6841 47.8831 33.5672 48.0635C33.4536 48.2405 33.2899 48.3775 33.0761 48.4744C32.8623 48.5713 32.6067 48.6197 32.3094 48.6197H31.2019L31.3673 48.4443V49.7272H30.9965ZM31.3673 48.4744L31.2019 48.294H32.2994C32.6502 48.294 32.9157 48.2188 33.0961 48.0685C33.2799 47.9148 33.3718 47.6993 33.3718 47.4221C33.3718 47.1414 33.2799 46.9243 33.0961 46.7706C32.9157 46.6169 32.6502 46.5401 32.2994 46.5401H31.2019L31.3673 46.3647V48.4744ZM35.7869 49.7272V46.5401H34.5541V46.2194H37.3904V46.5401H36.1577V49.7272H35.7869Z" fill="#BDEBEA"/>
</svg>
