<svg width="7" height="10" viewBox="0 0 7 10" fill="none" xmlns="http://www.w3.org/2000/svg">
<path fill-rule="evenodd" clip-rule="evenodd" d="M3.80071 0.34436C3.88378 0.34436 3.96344 0.377358 4.02218 0.436093C4.08091 0.494828 4.11391 0.57449 4.11391 0.657555V8.04456L6.08453 6.07331C6.14334 6.0145 6.2231 5.98146 6.30627 5.98146C6.38944 5.98146 6.4692 6.0145 6.52801 6.07331C6.58682 6.13212 6.61986 6.21189 6.61986 6.29505C6.61986 6.37822 6.58682 6.45799 6.52801 6.5168L4.02245 9.02235C3.99336 9.05152 3.9588 9.07466 3.92075 9.09045C3.8827 9.10624 3.84191 9.11436 3.80071 9.11436C3.75952 9.11436 3.71873 9.10624 3.68068 9.09045C3.64263 9.07466 3.60806 9.05152 3.57897 9.02235L1.07342 6.5168C1.01461 6.45799 0.981567 6.37822 0.981567 6.29505C0.981567 6.21189 1.01461 6.13212 1.07342 6.07331C1.13223 6.0145 1.21199 5.98146 1.29516 5.98146C1.37833 5.98146 1.45809 6.0145 1.5169 6.07331L3.48752 8.04456V0.657555C3.48752 0.57449 3.52052 0.494828 3.57925 0.436093C3.63799 0.377358 3.71765 0.34436 3.80071 0.34436Z" fill="#D7E5EC"/>
</svg>
